<svg width="1440" height="569" viewBox="0 0 1440 569" fill="none" xmlns="http://www.w3.org/2000/svg">
<rect width="1440" height="568" transform="translate(0 0.199951)" fill="#011F5B"/>
<mask id="mask0_5419_24999" style="mask-type:alpha" maskUnits="userSpaceOnUse" x="1035" y="127" width="701" height="701">
<circle opacity="0.45" cx="1385.07" cy="478" r="350" fill="url(#paint0_radial_5419_24999)"/>
</mask>
<g mask="url(#mask0_5419_24999)">
<rect width="1440" height="567" fill="#0047E0"/>
</g>
<mask id="mask1_5419_24999" style="mask-type:alpha" maskUnits="userSpaceOnUse" x="0" y="0" width="1440" height="567">
<path d="M0 0H1440V567H0V0Z" fill="url(#paint1_linear_5419_24999)"/>
</mask>
<g mask="url(#mask1_5419_24999)">
<rect width="1440" height="567" fill="#0047E0"/>
</g>
<mask id="mask2_5419_24999" style="mask-type:alpha" maskUnits="userSpaceOnUse" x="30" y="-85" width="550" height="535">
<g clip-path="url(#clip0_5419_24999)">
<path d="M299.745 190.285L299.796 190.313L299.847 190.341L299.897 190.369L299.948 190.397L299.999 190.425L300.032 190.459L300.083 190.493L300.134 190.527L300.184 190.56L300.235 190.594L300.286 190.628L300.336 190.662L300.37 190.695L300.421 190.735L300.472 190.774L300.505 190.814L300.556 190.853L300.607 190.892L300.64 190.937L300.691 190.982L300.725 191.027L300.775 191.072L300.809 191.117L300.86 191.162L300.894 191.207L300.927 191.258L300.978 191.309L301.012 191.359L301.046 191.41L301.079 191.461L301.13 191.511L301.164 191.568L301.198 191.624L301.231 191.68L301.265 191.736L301.299 191.793L301.333 191.849L301.35 191.905L301.383 191.961L301.417 192.023L301.451 192.085L301.468 192.147L301.502 192.209L301.519 192.271L301.552 192.333L301.569 192.4L301.603 192.462L301.62 192.53L301.637 192.597L301.671 192.665L301.687 192.732L301.704 192.8L301.721 192.867L301.738 192.94L301.755 193.008L301.772 193.081L301.789 193.154V193.227L301.806 193.301L301.823 193.374V193.447L301.839 193.52V193.593L301.856 193.666V193.818L301.873 193.897V194.28L301.856 194.358V194.516L301.839 194.595V194.674L301.823 194.752V194.831L301.806 194.91L301.789 194.989V195.067L301.772 195.146L301.755 195.231L301.738 195.309L301.721 195.394L301.687 195.478L301.671 195.563L301.654 195.647L301.62 195.731L301.603 195.816L301.569 195.9L301.552 195.985L301.519 196.069L301.485 196.153L301.468 196.238L301.434 196.322L301.4 196.407L301.367 196.491L301.316 196.575L301.282 196.66L301.248 196.744L301.215 196.829L301.164 196.907L301.13 196.992L301.079 197.071L301.029 197.155L300.995 197.234L300.944 197.313L300.894 197.391L300.843 197.47L300.792 197.549L300.742 197.628L300.674 197.706L300.624 197.785L300.573 197.864L300.505 197.943L300.455 198.021L300.387 198.1L300.336 198.179L300.269 198.258L300.201 198.331L300.134 198.41L300.066 198.483L299.999 198.556L299.931 198.629L299.864 198.702L299.796 198.775L299.712 198.849L299.644 198.922L299.576 198.995L299.492 199.068L299.408 199.141L299.34 199.209L299.256 199.276L299.171 199.344L299.087 199.411L299.002 199.479L298.918 199.546L298.833 199.614L298.749 199.676L298.665 199.738L298.569 199.8L298.484 199.861L298.4 199.923L298.304 199.98L298.22 200.041L298.124 200.098L298.028 200.154L297.933 200.21L297.848 200.267L297.753 200.323L297.657 200.379L297.561 200.435L297.466 200.486L297.353 200.537L297.257 200.587L297.162 200.638L297.066 200.689L296.953 200.734L296.858 200.779L296.745 200.824L296.649 200.869L296.537 200.914L296.424 200.959L296.328 200.998L296.216 201.037L296.103 201.077L295.991 201.111L295.878 201.144L295.766 201.178L295.653 201.212L295.54 201.246L295.428 201.279L295.315 201.308L295.186 201.336L295.073 201.364L294.961 201.392L294.831 201.414L294.718 201.437L294.589 201.459L294.476 201.476L294.347 201.493L294.234 201.51L294.105 201.527L293.975 201.544L293.863 201.555L293.733 201.566L293.604 201.578H293.474L293.362 201.594H293.232L293.103 201.606H292.973H292.844H292.579H292.45H292.32L292.191 201.594H292.045L291.915 201.578L291.786 201.566L291.656 201.555L291.527 201.544L291.38 201.527L291.251 201.51L291.121 201.493L290.992 201.471L290.846 201.448L290.716 201.426L290.587 201.403L290.44 201.375L290.311 201.347L290.181 201.319L290.035 201.285L289.906 201.251L289.776 201.218L289.63 201.184L289.5 201.144L289.371 201.105L289.224 201.066L289.095 201.021L288.949 200.976L288.819 200.931L288.69 200.886L288.543 200.835L288.414 200.784L288.284 200.734L288.138 200.677L288.008 200.621L287.879 200.565L287.75 200.503L287.603 200.441L287.474 200.379L287.344 200.317L287.215 200.25L287.068 200.182L286.939 200.109L286.809 200.036L286.68 199.963L286.551 199.89L286.421 199.811L286.292 199.732L286.162 199.653L286.033 199.569L285.903 199.484L285.774 199.4L285.644 199.316L285.515 199.226L285.385 199.136L285.256 199.046L285.143 198.95L285.014 198.854L284.884 198.759L284.772 198.657L284.642 198.556L284.53 198.455L284.4 198.353L284.288 198.247L284.158 198.14L284.046 198.033L283.933 197.92L283.803 197.808L283.691 197.695L283.578 197.583L283.466 197.464L283.353 197.346L283.241 197.228L283.128 197.104L283.015 196.981L282.92 196.857L282.807 196.733L282.695 196.604L282.599 196.474L282.486 196.345L282.391 196.215L282.278 196.08L282.182 195.945L282.087 195.81L281.991 195.675L281.895 195.534L281.799 195.394L281.704 195.253L281.608 195.107L281.512 194.961L281.417 194.814L281.332 194.668L281.237 194.516L281.152 194.364L281.068 194.212L280.972 194.06L280.888 193.903L280.803 193.745L280.719 193.588L280.634 193.43L280.55 193.267L280.482 193.104L280.398 192.94L280.33 192.777L280.246 192.614L280.178 192.445L280.111 192.277L280.026 192.108L279.959 191.939L279.891 191.765L279.841 191.59L279.773 191.416L279.705 191.241L279.655 191.067L279.587 190.892L279.537 190.712L279.486 190.532L279.435 190.352L279.385 190.172L279.334 189.992L279.283 189.806L279.233 189.621L279.199 189.435L279.148 189.249L279.114 189.064L279.081 188.872L279.047 188.687L279.013 188.495L278.979 188.304L278.945 188.113L278.929 187.921L278.895 187.73L278.878 187.539L278.861 187.347L278.844 187.156L278.827 186.959L278.81 186.762L278.794 186.565L278.777 186.368V185.975L278.76 185.778V185.181L278.777 184.979V184.776L278.794 184.573V184.371L278.81 184.168L278.827 183.966L278.844 183.763L278.861 183.561L278.895 183.358L278.912 183.156L278.945 182.953L278.979 182.75L278.996 182.548L279.03 182.345L279.081 182.143L279.114 181.94L279.148 181.738L279.199 181.535L279.249 181.332L279.283 181.13L279.334 180.927L279.401 180.725L279.452 180.522L279.503 180.32L279.57 180.117L279.621 179.915L279.689 179.712L279.756 179.509L279.824 179.307L279.891 179.104L279.976 178.902L280.043 178.699L280.128 178.497L280.212 178.294L280.297 178.091L280.381 177.889L280.465 177.686L280.55 177.489L280.646 177.287L280.73 177.09L280.826 176.893L280.921 176.696L281.017 176.499L281.113 176.302L281.225 176.105L281.321 175.914L281.434 175.717L281.529 175.526L281.642 175.334L281.754 175.143L281.867 174.952L281.997 174.76L282.109 174.569L282.239 174.378L282.351 174.186L282.481 174.001L282.61 173.815L282.74 173.629L282.886 173.444L283.015 173.264L283.145 173.084L283.291 172.904L283.438 172.723L283.584 172.543L283.73 172.369L283.877 172.195L284.023 172.02L284.186 171.846L284.333 171.671L284.496 171.497L284.659 171.328L284.822 171.159L284.986 170.99L285.149 170.827L285.312 170.664L285.492 170.501L285.655 170.338L285.836 170.175L286.016 170.017L286.196 169.859L286.376 169.708L286.556 169.556L286.736 169.404L286.933 169.252L287.113 169.1L287.31 168.954L287.507 168.807L287.705 168.667L287.902 168.526L288.099 168.385L288.296 168.25L288.509 168.115L288.707 167.98L288.92 167.845L289.117 167.716L289.331 167.586L289.545 167.457L289.759 167.333L289.973 167.209L290.187 167.091L290.418 166.973L290.632 166.855L290.846 166.742L291.076 166.63L291.307 166.517L291.538 166.41L291.752 166.303L291.983 166.202L292.213 166.101L292.461 165.999L292.692 165.904L292.923 165.808L293.17 165.713L293.401 165.622L293.649 165.532L293.88 165.448L294.127 165.364L294.375 165.279L294.623 165.2L294.87 165.122L295.118 165.049L295.366 164.975L295.614 164.902L295.878 164.835L296.126 164.773L296.39 164.711L296.638 164.655L296.903 164.598L297.15 164.542L297.415 164.491L297.679 164.441L297.927 164.396L298.192 164.351L298.456 164.306L298.721 164.266L298.985 164.233L299.25 164.199L299.531 164.165L299.796 164.137L300.061 164.109L300.325 164.086L300.607 164.069L300.871 164.053L301.136 164.041L301.417 164.03H301.682L301.963 164.013H302.228H302.509H302.774L303.055 164.019H303.337L303.601 164.036L303.883 164.053L304.164 164.069L304.429 164.086L304.71 164.109L304.992 164.131L305.273 164.16L305.555 164.193L305.819 164.227L306.101 164.266L306.382 164.306L306.664 164.351L306.945 164.396L307.21 164.446L307.491 164.497L307.773 164.553L308.054 164.61L308.335 164.672L308.6 164.733L308.882 164.801L309.163 164.868L309.444 164.942L309.709 165.015L309.99 165.094L310.272 165.178L310.536 165.262L310.818 165.347L311.099 165.437L311.364 165.532L311.645 165.628L311.91 165.729L312.191 165.831L312.456 165.938L312.738 166.044L313.002 166.157L313.267 166.27L313.531 166.388L313.813 166.506L314.077 166.63L314.342 166.753L314.606 166.883L314.871 167.012L315.136 167.147L315.4 167.282L315.665 167.423L315.929 167.564L316.177 167.71L316.442 167.862L316.706 168.014L316.954 168.166L317.201 168.323L317.466 168.487L317.714 168.65L317.961 168.813L318.209 168.982L318.474 169.156L318.704 169.331L318.952 169.505L319.2 169.685L319.447 169.865L319.678 170.051L319.926 170.236L320.157 170.428L320.404 170.619L320.635 170.816L320.866 171.013L321.097 171.216L321.328 171.418L321.558 171.626L321.789 171.834L322.003 172.048L322.234 172.262L322.448 172.476L322.662 172.695L322.876 172.92L323.09 173.145L323.303 173.371L323.517 173.601L323.731 173.832L323.928 174.068L324.142 174.31L324.339 174.552L324.536 174.794L324.733 175.042L324.93 175.289L325.11 175.537L325.307 175.79L325.505 176.043L325.685 176.296L325.865 176.555L326.045 176.82L326.225 177.084L326.405 177.349L326.568 177.619L326.749 177.889L326.912 178.165L327.075 178.44L327.238 178.716L327.402 178.997L327.548 179.279L327.711 179.56L327.858 179.847L328.004 180.134L328.15 180.421L328.297 180.714L328.443 181.006L328.572 181.299L328.702 181.597L328.831 181.895L328.961 182.193L329.09 182.497L329.22 182.801L329.332 183.105L329.445 183.409L329.574 183.718L329.67 184.028L329.783 184.337L329.895 184.652L329.991 184.967L330.087 185.282L330.182 185.603L330.278 185.924L330.363 186.245L330.458 186.565L330.543 186.886L330.627 187.212L330.712 187.539L330.779 187.865L330.863 188.191L330.931 188.523L330.999 188.855L331.066 189.187L331.117 189.519L331.184 189.851L331.235 190.189L331.286 190.527L331.336 190.864L331.37 191.202L331.404 191.539L331.455 191.883L331.488 192.22L331.505 192.564L331.539 192.907L331.556 193.25L331.573 193.593L331.59 193.936L331.607 194.28V194.623L331.623 194.972V195.315L331.607 195.664V196.013L331.59 196.362V196.71L331.556 197.059L331.539 197.408L331.522 197.757L331.488 198.106L331.455 198.455L331.421 198.804L331.387 199.152L331.336 199.501L331.286 199.85L331.235 200.199L331.184 200.548L331.117 200.897L331.066 201.246L330.999 201.594L330.931 201.943L330.847 202.292L330.779 202.641L330.695 202.99L330.61 203.339L330.526 203.688L330.43 204.036L330.334 204.38L330.239 204.729L330.143 205.072L330.047 205.415L329.935 205.758L329.822 206.102L329.709 206.445L329.597 206.788L329.484 207.131L329.355 207.474L329.225 207.818L329.096 208.155L328.966 208.493L328.82 208.831L328.674 209.168L328.527 209.506L328.381 209.838L328.218 210.17L328.071 210.502L327.908 210.834L327.745 211.166L327.565 211.492L327.402 211.818L327.221 212.145L327.041 212.471L326.861 212.792L326.664 213.112L326.484 213.433L326.287 213.754L326.09 214.069L325.876 214.384L325.679 214.699L325.465 215.009L325.251 215.318L325.037 215.628L324.823 215.932L324.593 216.235L324.379 216.539L324.148 216.843L323.9 217.141L323.669 217.439L323.422 217.732L323.191 218.025L322.943 218.317L322.696 218.61L322.431 218.897L322.183 219.184L321.919 219.465L321.654 219.746L321.39 220.022L321.125 220.298L320.844 220.568L320.562 220.838L320.281 221.103L319.999 221.367L319.718 221.631L319.436 221.89L319.144 222.149L318.851 222.402L318.558 222.656L318.265 222.903L317.973 223.151L317.663 223.393L317.353 223.635L317.061 223.871L316.734 224.107L316.425 224.338L316.115 224.569L315.789 224.794L315.479 225.019L315.152 225.238L314.826 225.458L314.499 225.671L314.156 225.885L313.83 226.093L313.486 226.296L313.143 226.499L312.799 226.696L312.456 226.892L312.113 227.084L311.752 227.275L311.409 227.461L311.049 227.641L310.688 227.821L310.345 227.995L309.968 228.17L309.608 228.339L309.247 228.502L308.87 228.665L308.51 228.822L308.133 228.974L307.756 229.126L307.379 229.273L307.001 229.419L306.624 229.56L306.247 229.695L305.853 229.83L305.476 229.959L305.082 230.083L304.688 230.207L304.294 230.325L303.9 230.437L303.506 230.55L303.112 230.657L302.718 230.758L302.324 230.854L301.913 230.949L301.519 231.039L301.108 231.124L300.697 231.208L300.303 231.287L299.892 231.36L299.481 231.433L299.07 231.501L298.659 231.563L298.248 231.619L297.837 231.675L297.409 231.726L296.998 231.771L296.587 231.81L296.16 231.85L295.749 231.883L295.338 231.912L294.91 231.934L294.482 231.951L294.071 231.968L293.643 231.979H293.215L292.805 231.99H292.377L291.949 231.985L291.521 231.973L291.093 231.957L290.682 231.94L290.255 231.917L289.827 231.889L289.399 231.855L288.971 231.822L288.543 231.782L288.115 231.737L287.688 231.687L287.26 231.63L286.832 231.574L286.404 231.512L285.993 231.445L285.565 231.371L285.138 231.298L284.71 231.219L284.282 231.135L283.854 231.045L283.443 230.949L283.015 230.854L282.588 230.752L282.16 230.646L281.749 230.533L281.321 230.42L280.91 230.302L280.482 230.179L280.071 230.049L279.644 229.92L279.233 229.785L278.822 229.644L278.394 229.498L277.983 229.346L277.572 229.194L277.161 229.036L276.75 228.873L276.339 228.704L275.928 228.535L275.534 228.361L275.123 228.181L274.712 227.995L274.318 227.804L273.907 227.613L273.513 227.416L273.119 227.213L272.725 227.011L272.331 226.802L271.937 226.589L271.543 226.369L271.149 226.144L270.772 225.913L270.378 225.683L270.001 225.446L269.624 225.204L269.246 224.962L268.869 224.715L268.492 224.462L268.115 224.209L267.755 223.95L267.378 223.685L267.017 223.421L266.657 223.151L266.297 222.875L265.936 222.594L265.576 222.312L265.233 222.025L264.873 221.733L264.529 221.44L264.186 221.142L263.842 220.838L263.499 220.534L263.173 220.225L262.829 219.91L262.503 219.589L262.176 219.268L261.85 218.942L261.523 218.61L261.214 218.278L260.887 217.94L260.577 217.603L260.268 217.259L259.958 216.911L259.666 216.562L259.356 216.207L259.063 215.847L258.77 215.487L258.489 215.121L258.196 214.756L257.915 214.384L257.622 214.013L257.341 213.636L257.076 213.259L256.795 212.876L256.53 212.488L256.265 212.1L256.001 211.706L255.736 211.306L255.489 210.907L255.241 210.507L254.993 210.102L254.746 209.697L254.515 209.286L254.284 208.876L254.053 208.459L253.822 208.043L253.592 207.621L253.378 207.199L253.164 206.771L252.95 206.343L252.753 205.91L252.556 205.477L252.359 205.038L252.162 204.599L251.982 204.16L251.785 203.716L251.605 203.271L251.441 202.821L251.261 202.371L251.098 201.921L250.935 201.465L250.788 201.009L250.625 200.548L250.479 200.087L250.332 199.625L250.203 199.158L250.073 198.691L249.944 198.224L249.814 197.757L249.702 197.284L249.589 196.812L249.477 196.339L249.364 195.861L249.268 195.383L249.173 194.904L249.077 194.42L248.993 193.936L248.908 193.453L248.824 192.969L248.756 192.479L248.672 191.99L248.621 191.5L248.553 191.011L248.503 190.521L248.452 190.031L248.402 189.542L248.351 189.047L248.317 188.552L248.3 188.056L248.266 187.561L248.25 187.066L248.233 186.565L248.216 186.065V184.568L248.233 184.067L248.25 183.566L248.266 183.066L248.3 182.565L248.334 182.064L248.368 181.563L248.402 181.062L248.452 180.562L248.503 180.061L248.57 179.56L248.638 179.059L248.705 178.558L248.773 178.058L248.857 177.557L248.942 177.056L249.026 176.555L249.122 176.055L249.206 175.554L249.319 175.053L249.415 174.552L249.527 174.057L249.64 173.562L249.769 173.067L249.899 172.572L250.028 172.076L250.158 171.581L250.304 171.092L250.451 170.602L250.597 170.113L250.76 169.623L250.923 169.134L251.087 168.644L251.267 168.16L251.447 167.676L251.627 167.192L251.824 166.714L252.004 166.236L252.218 165.758L252.415 165.279L252.629 164.801L252.843 164.328L253.057 163.856L253.288 163.389L253.518 162.922L253.749 162.455L253.997 161.993L254.228 161.532L254.492 161.07L254.74 160.609L255.005 160.153L255.269 159.697L255.534 159.247L255.815 158.797L256.097 158.347L256.378 157.903L256.671 157.458L256.952 157.019L257.245 156.58L257.555 156.147L257.847 155.714L258.157 155.286L258.483 154.858L258.793 154.436L259.119 154.014L259.446 153.598L259.772 153.182L260.116 152.771L260.459 152.36L260.803 151.955L261.146 151.55L261.506 151.15L261.867 150.751L262.227 150.357L262.587 149.969L262.964 149.581L263.341 149.198L263.719 148.815L264.113 148.438L264.507 148.067L264.884 147.696L265.295 147.33L265.689 146.97L266.1 146.61L266.511 146.255L266.922 145.906L267.332 145.563L267.76 145.22L268.188 144.882L268.616 144.55L269.061 144.218L269.488 143.892L269.933 143.571L270.378 143.25L270.823 142.935L271.284 142.626L271.729 142.322L272.19 142.024L272.652 141.726L273.131 141.433L273.592 141.146L274.065 140.865L274.543 140.583L275.022 140.308L275.5 140.038L275.99 139.773L276.469 139.514L276.958 139.261L277.448 139.008L277.938 138.76L278.444 138.518L278.934 138.282L279.441 138.051L279.947 137.826L280.454 137.607L280.961 137.387L281.484 137.173L281.991 136.965L282.514 136.763L283.038 136.566L283.561 136.374L284.085 136.189L284.608 136.009L285.149 135.834L285.672 135.665L286.213 135.502L286.753 135.339L287.294 135.187L287.834 135.035L288.374 134.889L288.915 134.754L289.472 134.619L290.012 134.489L290.57 134.366L291.11 134.248L291.667 134.135L292.225 134.028L292.782 133.927L293.339 133.831L293.914 133.741L294.471 133.657L295.028 133.578L295.602 133.505L296.16 133.437L296.734 133.375L297.291 133.319L297.865 133.268L298.439 133.223L299.014 133.184L299.588 133.15L300.145 133.122L300.719 133.1L301.293 133.083L301.868 133.072H302.459H303.033H303.607L304.181 133.094L304.755 133.111L305.329 133.133L305.904 133.167L306.495 133.207L307.069 133.252L307.643 133.297L308.217 133.353L308.808 133.415L309.383 133.482L309.957 133.555L310.531 133.634L311.105 133.719L311.679 133.809L312.27 133.904L312.844 134.006L313.419 134.113L313.993 134.225L314.567 134.343L315.141 134.467L315.698 134.596L316.273 134.731L316.847 134.872L317.421 135.018L317.978 135.176L318.552 135.334L319.11 135.502L319.684 135.677L320.241 135.851L320.799 136.037L321.373 136.228L321.93 136.425L322.487 136.628L323.045 136.836L323.585 137.05L324.142 137.269L324.7 137.494L325.24 137.725L325.797 137.961L326.338 138.203L326.878 138.451L327.418 138.704L327.959 138.963L328.482 139.227L329.023 139.497L329.563 139.773L330.087 140.054L330.61 140.341L331.134 140.634L331.657 140.932L332.181 141.236L332.687 141.545L333.194 141.861L333.717 142.181L334.224 142.508L334.731 142.84L335.22 143.177L335.727 143.515L336.217 143.858L336.707 144.213L337.196 144.567L337.686 144.927L338.165 145.293L338.654 145.664L339.133 146.041L339.606 146.424L340.067 146.812L340.546 147.206L341.007 147.606L341.469 148.005L341.93 148.41L342.392 148.821L342.837 149.237L343.282 149.659L343.726 150.087L344.171 150.52L344.599 150.953L345.027 151.392L345.454 151.837L345.882 152.287L346.293 152.743L346.704 153.204L347.115 153.666L347.526 154.133L347.92 154.605L348.314 155.084L348.708 155.562L349.085 156.051L349.479 156.541L349.839 157.036L350.217 157.537L350.577 158.038L350.954 158.544L351.297 159.056L351.658 159.568L352.001 160.086L352.344 160.609L352.671 161.138L353.014 161.667L353.341 162.201L353.65 162.742L353.977 163.282L354.287 163.828L354.579 164.373L354.889 164.925L355.182 165.476L355.474 166.033L355.756 166.596L356.037 167.159L356.319 167.727L356.583 168.301L356.848 168.875L357.112 169.454L357.36 170.034L357.608 170.619L357.855 171.204L358.086 171.795L358.317 172.386L358.548 172.982L358.762 173.579L358.976 174.181L359.19 174.783L359.387 175.391L359.584 175.998L359.764 176.606L359.944 177.219L360.124 177.833L360.287 178.452L360.451 179.07L360.614 179.689L360.76 180.314L360.906 180.939L361.036 181.569L361.165 182.199L361.295 182.829L361.424 183.459L361.537 184.095L361.633 184.731L361.728 185.367L361.824 186.008L361.92 186.65L362.004 187.291L362.072 187.933L362.139 188.58L362.207 189.227L362.274 189.874L362.325 190.521L362.376 191.168L362.409 191.815L362.443 192.468L362.46 193.121L362.477 193.773L362.494 194.426V196.384L362.477 197.037L362.443 197.69L362.426 198.348L362.393 199.001L362.342 199.659L362.291 200.312L362.241 200.97L362.173 201.623L362.105 202.281L362.021 202.934L361.937 203.586L361.852 204.239L361.756 204.892L361.661 205.544L361.565 206.197L361.453 206.85L361.323 207.503L361.21 208.15L361.064 208.802L360.935 209.449L360.788 210.097L360.625 210.744L360.479 211.391L360.299 212.038L360.135 212.679L359.955 213.321L359.758 213.962L359.578 214.604L359.364 215.239L359.167 215.875L358.953 216.505L358.722 217.136L358.508 217.766L358.261 218.396L358.03 219.021L357.782 219.645L357.535 220.27L357.27 220.889L357.005 221.508L356.724 222.127L356.443 222.74L356.161 223.353L355.868 223.961L355.576 224.569L355.283 225.176L354.973 225.778L354.647 226.375L354.337 226.971L354.011 227.562L353.667 228.153L353.341 228.738L352.997 229.323L352.637 229.903L352.277 230.482L351.917 231.056L351.54 231.625L351.162 232.193L350.785 232.756L350.391 233.318L349.997 233.875L349.603 234.427L349.192 234.978L348.781 235.524L348.353 236.064L347.942 236.604L347.498 237.139L347.07 237.668L346.625 238.197L346.181 238.72L345.719 239.238L345.257 239.75L344.796 240.262L344.334 240.768L343.856 241.269L343.377 241.764L342.887 242.259L342.398 242.749L341.908 243.233L341.401 243.711L340.912 244.184L340.405 244.656L339.881 245.118L339.358 245.579L338.834 246.035L338.311 246.485L337.771 246.929L337.247 247.368L336.69 247.802L336.149 248.229L335.592 248.651L335.035 249.073L334.477 249.484L333.903 249.895L333.329 250.3L332.755 250.699L332.181 251.093L331.59 251.476L330.999 251.859L330.408 252.236L329.8 252.607L329.192 252.973L328.601 253.333L327.976 253.687L327.368 254.03L326.743 254.368L326.118 254.7L325.493 255.026L324.868 255.347L324.227 255.662L323.585 255.972L322.943 256.276L322.302 256.574L321.66 256.866L321.001 257.148L320.343 257.429L319.684 257.699L319.025 257.964L318.35 258.222L317.691 258.476L317.016 258.723L316.346 258.965L315.676 259.196L315 259.421L314.314 259.64L313.644 259.854L312.957 260.057L312.27 260.259L311.584 260.451L310.897 260.636L310.193 260.816L309.506 260.991L308.803 261.154L308.099 261.311L307.395 261.463L306.692 261.61L305.988 261.745L305.284 261.874L304.581 261.998L303.86 262.111L303.157 262.217L302.436 262.319L301.716 262.414L300.995 262.499L300.274 262.578L299.571 262.651L298.833 262.718L298.113 262.774L297.392 262.825L296.672 262.87L295.951 262.904L295.214 262.932L294.493 262.955L293.756 262.966H293.035L292.298 262.971H291.577L290.84 262.949L290.119 262.926L289.382 262.898L288.661 262.864L287.924 262.819L287.187 262.769L286.466 262.713L285.729 262.645L285.008 262.572L284.271 262.493L283.55 262.403L282.813 262.307L282.092 262.206L281.355 262.094L280.634 261.975L279.897 261.852L279.176 261.717L278.456 261.576L277.735 261.43L277.015 261.278L276.277 261.115L275.557 260.946L274.853 260.771L274.133 260.586L273.412 260.394L272.691 260.197L271.988 259.989L271.267 259.775L270.564 259.556L269.86 259.325L269.156 259.089L268.436 258.847L267.749 258.594L267.045 258.335L266.342 258.07L265.655 257.8L264.951 257.519L264.265 257.232L263.578 256.94L262.891 256.641L262.204 256.332L261.534 256.017L260.848 255.696L260.172 255.37L259.502 255.032L258.832 254.689L258.157 254.34L257.498 253.985L256.84 253.62L256.17 253.248L255.528 252.871L254.869 252.489L254.211 252.095L253.569 251.695L252.927 251.29L252.286 250.879L251.644 250.463L251.019 250.041L250.394 249.608L249.769 249.169L249.145 248.724L248.537 248.274L247.929 247.818L247.321 247.357L246.713 246.884L246.122 246.412L245.531 245.928L244.94 245.438L244.348 244.943L243.774 244.442L243.2 243.936L242.626 243.424L242.069 242.906L241.511 242.383L240.954 241.854L240.414 241.314L239.856 240.774L239.316 240.228L238.792 239.677L238.269 239.114L237.745 238.546L237.222 237.977L236.715 237.398L236.209 236.818L235.702 236.227L235.212 235.637L234.723 235.04L234.244 234.438L233.754 233.83L233.293 233.217L232.814 232.598L232.353 231.973L231.891 231.343L231.446 230.707L231.002 230.066L230.557 229.419L230.129 228.772L229.701 228.119L229.274 227.461L228.863 226.797L228.469 226.127L228.058 225.458L227.664 224.782L227.286 224.102L226.909 223.421L226.532 222.729L226.172 222.037L225.812 221.339L225.451 220.641L225.108 219.938L224.781 219.229L224.438 218.514L224.112 217.8L223.802 217.079L223.492 216.354L223.2 215.628L222.907 214.896L222.614 214.159L222.333 213.422L222.051 212.679L221.787 211.936L221.522 211.188L221.258 210.44L221.01 209.686L220.779 208.932L220.548 208.172L220.317 207.413L220.104 206.647L219.89 205.882L219.693 205.111L219.496 204.34L219.315 203.564L219.135 202.787L218.972 202.011L218.809 201.229L218.646 200.447L218.499 199.659L218.37 198.871L218.24 198.083L218.111 197.296L217.998 196.502L217.903 195.709L217.807 194.916L217.711 194.116L217.627 193.317L217.542 192.518L217.475 191.719L217.424 190.92L217.357 190.116L217.323 189.311L217.289 188.507L217.255 187.702L217.238 186.897L217.221 186.087V184.472L217.238 183.662L217.255 182.852L217.289 182.041L217.323 181.231L217.373 180.421L217.424 179.611L217.492 178.8L217.559 177.99L217.644 177.18L217.728 176.37L217.824 175.559L217.919 174.749L218.032 173.944L218.145 173.14L218.274 172.335L218.404 171.531L218.55 170.726L218.696 169.927L218.86 169.128L219.023 168.329L219.203 167.53L219.383 166.731L219.58 165.932L219.777 165.139L219.974 164.345L220.205 163.552L220.419 162.764L220.65 161.976L220.897 161.189L221.145 160.401L221.41 159.619L221.674 158.837L221.956 158.06L222.237 157.284L222.518 156.507L222.811 155.736L223.121 154.965L223.43 154.2L223.74 153.44L224.067 152.681L224.41 151.921L224.753 151.167L225.097 150.413L225.457 149.665L225.817 148.917L226.194 148.174L226.572 147.437L226.966 146.7L227.36 145.968L227.771 145.242L228.181 144.516L228.609 143.796L229.037 143.076L229.465 142.367L229.91 141.658L230.354 140.955L230.816 140.257L231.294 139.559L231.756 138.867L232.229 138.181L232.719 137.5L233.208 136.819L233.698 136.144L234.205 135.474L234.728 134.81L235.235 134.152L235.758 133.494L236.299 132.846L236.839 132.199L237.38 131.558L237.937 130.922L238.494 130.292L239.068 129.667L239.642 129.048L240.217 128.435L240.808 127.827L241.399 127.225L242.007 126.629L242.615 126.038L243.223 125.453L243.848 124.873L244.472 124.299L245.114 123.731L245.756 123.168L246.398 122.611L247.039 122.06L247.698 121.514L248.368 120.98L249.026 120.451L249.702 119.927L250.372 119.41L251.058 118.898L251.745 118.391L252.432 117.896L253.136 117.407L253.839 116.923L254.543 116.444L255.264 115.972L255.984 115.51L256.705 115.055L257.442 114.604L258.163 114.16L258.917 113.721L259.654 113.293L260.409 112.871L261.163 112.461L261.917 112.056L262.671 111.656L263.443 111.262L264.214 110.88L265.002 110.503L265.773 110.131L266.561 109.771L267.349 109.417L268.137 109.073L268.942 108.736L269.747 108.404L270.552 108.083L271.357 107.768L272.162 107.464L272.984 107.166L273.806 106.873L274.628 106.592L275.45 106.316L276.289 106.052L277.11 105.793L277.949 105.545L278.788 105.303L279.627 105.067L280.482 104.842L281.321 104.628L282.177 104.42L283.032 104.217L283.882 104.026L284.738 103.84L285.594 103.666L286.449 103.503L287.316 103.345L288.183 103.193L289.039 103.053L289.906 102.923L290.772 102.799L291.639 102.687L292.506 102.58L293.39 102.484L294.257 102.394L295.141 102.316L296.008 102.242L296.891 102.181L297.758 102.13L298.642 102.085L299.526 102.051L300.41 102.023L301.293 102.006H302.16L303.044 102H303.928L304.812 102.029L305.695 102.057L306.579 102.09L307.463 102.135L308.347 102.192L309.231 102.254L310.114 102.327L310.998 102.406L311.882 102.496L312.766 102.591L313.649 102.698L314.533 102.816L315.417 102.94L316.301 103.075L317.168 103.216L318.051 103.368L318.935 103.531L319.802 103.7L320.669 103.88L321.553 104.065L322.42 104.262L323.287 104.465L324.153 104.679L325.02 104.904L325.887 105.135L326.754 105.377L327.621 105.624L328.477 105.883L329.327 106.147L330.194 106.423L331.049 106.704L331.905 106.997L332.744 107.301L333.599 107.61L334.455 107.931L335.294 108.257L336.132 108.595L336.971 108.938L337.81 109.293L338.632 109.653L339.471 110.024L340.292 110.401L341.114 110.789L341.936 111.183L342.741 111.588L343.546 111.999L344.351 112.421L345.156 112.849L345.961 113.288L346.749 113.732L347.537 114.188L348.325 114.649L349.113 115.122L349.885 115.6L350.656 116.084L351.427 116.579L352.198 117.08L352.952 117.592L353.707 118.11L354.444 118.639L355.198 119.173L355.936 119.714L356.656 120.265L357.394 120.822L358.114 121.39L358.835 121.964L359.539 122.544L360.242 123.129L360.946 123.725L361.65 124.328L362.336 124.935L363.006 125.554L363.693 126.179L364.363 126.809L365.021 127.445L365.697 128.092L366.356 128.745L366.997 129.403L367.639 130.067L368.281 130.736L368.906 131.417L369.53 132.104L370.155 132.796L370.763 133.494L371.371 134.197L371.962 134.906L372.553 135.626L373.144 136.352L373.718 137.083L374.276 137.821L374.85 138.563L375.39 139.312L375.948 140.066L376.488 140.825L377.012 141.59L377.535 142.361L378.059 143.138L378.565 143.92L379.055 144.708L379.562 145.501L380.04 146.3L380.519 147.105L380.997 147.915L381.459 148.731L381.92 149.552L382.365 150.38L382.81 151.207L383.237 152.039L383.665 152.878L384.093 153.722L384.487 154.571L384.898 155.427L385.275 156.282L385.669 157.143L386.03 158.009L386.407 158.876L386.75 159.748L387.093 160.626L387.437 161.509L387.763 162.393L388.09 163.282L388.399 164.176L388.692 165.071L388.985 165.971L389.278 166.877L389.559 167.783L389.824 168.695L390.088 169.606L390.336 170.523L390.584 171.441L390.814 172.363L391.045 173.286L391.259 174.215L391.456 175.143L391.653 176.071L391.833 177.005L392.013 177.939L392.177 178.879L392.34 179.819L392.486 180.764L392.633 181.709L392.745 182.655L392.875 183.606L392.987 184.557L393.083 185.508L393.167 186.464L393.252 187.421L393.336 188.377L393.404 189.334L393.454 190.29L393.505 191.247L393.539 192.209L393.556 193.171L393.573 194.133L393.59 195.096L393.573 196.058V197.02L393.539 197.982L393.505 198.944L393.471 199.906L393.404 200.869L393.353 201.831L393.269 202.793L393.184 203.755L393.1 204.717L393.004 205.68L392.892 206.642L392.779 207.604L392.649 208.566L392.503 209.523L392.357 210.479L392.194 211.436L392.03 212.392L391.85 213.349L391.67 214.305L391.473 215.256L391.259 216.207L391.045 217.158L390.814 218.103L390.584 219.049L390.336 219.994L390.071 220.939L389.807 221.879L389.525 222.819L389.244 223.753L388.951 224.687L388.658 225.615L388.349 226.544L388.022 227.466L387.696 228.389L387.352 229.306L387.009 230.224L386.649 231.135L386.288 232.047L385.911 232.953L385.517 233.858L385.123 234.759L384.712 235.653L384.301 236.542L383.874 237.431L383.446 238.315L383.001 239.198L382.539 240.076L382.078 240.948L381.616 241.815L381.127 242.681L380.648 243.542L380.158 244.397L379.652 245.247L379.145 246.091L378.622 246.929L378.081 247.768L377.558 248.601L377 249.428L376.443 250.249L375.886 251.065L375.312 251.875L374.721 252.68L374.146 253.479L373.538 254.272L372.93 255.06L372.322 255.842L371.698 256.619L371.056 257.39L370.414 258.155L369.772 258.915L369.114 259.668L368.455 260.417L367.785 261.16L367.099 261.897L366.429 262.623L365.725 263.343L365.038 264.057L364.318 264.766L363.614 265.464L362.894 266.162L362.156 266.848L361.419 267.529L360.681 268.199L359.927 268.868L359.173 269.527L358.401 270.179L357.63 270.821L356.859 271.457L356.071 272.087L355.266 272.706L354.478 273.319L353.673 273.927L352.851 274.523L352.029 275.114L351.207 275.694L350.369 276.267L349.53 276.836L348.691 277.393L347.835 277.944L346.98 278.484L346.113 279.019L345.257 279.542L344.374 280.06L343.507 280.566L342.623 281.067L341.739 281.557L340.838 282.041L339.955 282.513L339.054 282.975L338.136 283.43L337.219 283.875L336.301 284.314L335.384 284.741L334.449 285.158L333.532 285.569L332.58 285.968L331.646 286.362L330.695 286.745L329.743 287.116L328.792 287.482L327.841 287.836L326.872 288.179L325.904 288.511L324.936 288.838L323.951 289.153L322.983 289.457L321.998 289.755L321.012 290.042L320.027 290.318L319.025 290.582L318.04 290.841L317.038 291.088L316.036 291.325L315.034 291.555L314.015 291.775L313.013 291.983L311.994 292.18L310.992 292.371L309.974 292.551L308.955 292.72L307.919 292.878L306.9 293.024L305.881 293.159L304.845 293.288L303.827 293.407L302.791 293.514L301.755 293.609L300.719 293.694L299.683 293.772L298.648 293.84L297.612 293.896L296.576 293.941L295.529 293.975L294.493 293.997L293.458 294.009H292.405H291.369L290.333 293.992L289.286 293.964L288.251 293.924L287.198 293.874L286.162 293.817L285.109 293.744L284.074 293.665L283.038 293.575L281.991 293.474L280.955 293.362L279.919 293.238L278.867 293.103L277.831 292.957L276.795 292.805L275.759 292.641L274.724 292.467L273.688 292.281L272.652 292.084L271.633 291.876L270.597 291.662L269.562 291.437L268.543 291.201L267.524 290.953L266.488 290.695L265.469 290.424L264.467 290.143L263.448 289.856L262.429 289.558L261.427 289.248L260.409 288.928L259.407 288.596L258.405 288.258L257.419 287.909L256.417 287.549L255.432 287.178L254.447 286.795L253.462 286.407L252.477 286.007L251.492 285.597L250.524 285.175L249.555 284.741L248.587 284.303L247.619 283.852L246.668 283.391L245.716 282.924L244.765 282.446L243.831 281.956L242.879 281.455L241.945 280.943L241.027 280.426L240.093 279.897L239.175 279.357L238.258 278.811L237.357 278.254L236.456 277.685L235.556 277.112L234.655 276.526L233.771 275.936L232.887 275.333L232.021 274.72L231.154 274.101L230.287 273.471L229.42 272.83L228.564 272.182L227.725 271.524L226.87 270.86L226.031 270.185L225.209 269.504L224.387 268.812L223.566 268.114L222.744 267.405L221.956 266.691L221.151 265.965L220.363 265.233L219.574 264.491L218.803 263.742L218.032 262.983L217.278 262.217L216.523 261.441L215.786 260.659L215.049 259.871L214.311 259.072L213.591 258.267L212.887 257.452L212.166 256.63L211.48 255.803L210.793 254.97L210.106 254.132L209.436 253.282L208.761 252.427L208.102 251.56L207.46 250.688L206.802 249.81L206.177 248.927L205.552 248.038L204.927 247.143L204.319 246.237L203.728 245.326L203.137 244.409L202.563 243.486L201.989 242.557L201.415 241.623L200.874 240.684L200.334 239.738L199.793 238.782L199.27 237.825L198.763 236.863L198.257 235.895L197.75 234.922L197.272 233.943L196.793 232.958L196.32 231.968L195.859 230.972L195.414 229.97L194.969 228.963L194.541 227.95L194.114 226.938L193.703 225.913L193.309 224.889L192.915 223.86L192.537 222.824L192.177 221.789L191.817 220.748L191.474 219.701L191.13 218.649L190.804 217.597L190.494 216.539L190.201 215.476L189.909 214.412L189.616 213.343L189.334 212.274L189.07 211.199L188.822 210.125L188.574 209.044L188.344 207.958L188.13 206.872L187.916 205.786L187.719 204.695L187.522 203.603L187.342 202.506L187.178 201.409L187.032 200.312L186.886 199.209L186.756 198.106L186.627 196.997L186.514 195.889L186.419 194.78L186.334 193.672L186.25 192.558L186.182 191.444L186.115 190.33L186.081 189.216L186.047 188.101L186.013 186.987L185.996 185.873V184.754L186.013 183.634L186.03 182.514L186.064 181.394L186.115 180.275L186.165 179.155L186.25 178.035L186.317 176.915L186.413 175.796L186.509 174.676L186.621 173.562L186.734 172.442L186.863 171.328L187.01 170.214L187.173 169.1L187.336 167.986L187.516 166.872L187.696 165.763L187.91 164.655L188.124 163.546L188.338 162.443L188.586 161.34L188.833 160.238L189.081 159.14L189.363 158.043L189.644 156.946L189.925 155.854L190.235 154.763L190.545 153.677L190.871 152.591L191.198 151.505L191.541 150.425L191.901 149.35L192.262 148.275L192.639 147.206L193.033 146.143L193.427 145.079L193.838 144.016L194.266 142.963L194.71 141.911L195.155 140.865L195.6 139.818L196.078 138.777L196.54 137.742L197.03 136.712L197.519 135.688L198.026 134.664L198.549 133.645L199.073 132.633L199.613 131.625L200.154 130.624L200.711 129.628L201.285 128.638L201.859 127.653L202.45 126.668L203.041 125.695L203.649 124.727L204.274 123.759L204.899 122.803L205.541 121.846L206.199 120.901L206.858 119.961L207.528 119.027L208.203 118.099L208.89 117.176L209.577 116.259L210.281 115.347L211.001 114.447L211.722 113.552L212.459 112.663L213.197 111.78L213.951 110.908L214.705 110.041L215.476 109.18L216.264 108.325L217.053 107.481L217.841 106.643L218.646 105.815L219.467 104.994L220.289 104.178L221.128 103.373L221.967 102.574L222.822 101.787L223.678 101.005L224.534 100.228L225.401 99.4628L226.284 98.7088L227.168 97.9604L228.069 97.2233L228.97 96.4918L229.87 95.7716L230.788 95.0626L231.722 94.3593L232.657 93.6672L233.591 92.9807L234.542 92.3055L235.494 91.6359L236.462 90.9776L237.43 90.3305L238.398 89.6891L239.384 89.0589L240.369 88.4399L241.371 87.8322L242.373 87.2302L243.392 86.6393L244.41 86.0598L245.429 85.4915L246.465 84.9288L247.501 84.3774L248.537 83.8372L249.589 83.3083L250.636 82.7906L251.689 82.2786L252.753 81.7778L253.817 81.2883L254.881 80.81L255.962 80.343L257.042 79.8872L258.123 79.4427L259.221 79.0038L260.319 78.5818L261.416 78.171L262.514 77.7659L263.628 77.372L264.743 76.9894L265.858 76.6181L266.989 76.2579L268.121 75.9091L269.252 75.5715L270.383 75.2451L271.515 74.93L272.663 74.6262L273.812 74.3336L274.96 74.0522L276.108 73.7821L277.274 73.5233L278.422 73.2757L279.587 73.0394L280.752 72.8143L281.918 72.6062L283.083 72.4092L284.265 72.2235L285.43 72.0491L286.612 71.8859L287.795 71.734L288.977 71.5933L290.159 71.4639L291.341 71.3457L292.54 71.2388L293.722 71.1432L294.904 71.0588L296.103 70.9913L297.302 70.935L298.484 70.89L299.683 70.8562L300.882 70.8337L302.081 70.8225H303.264L304.463 70.8393L305.662 70.8675L306.861 70.9069L308.06 70.9575L309.259 71.0194L310.458 71.0925L311.657 71.1769L312.839 71.2726L314.038 71.3851L315.237 71.5089L316.436 71.644L317.618 71.7903L318.817 71.9478L319.999 72.1166L321.198 72.2967L322.38 72.488L323.579 72.6962L324.761 72.9156L325.944 73.1463L327.126 73.3883L328.308 73.6415L329.473 73.9059L330.655 74.1816L331.82 74.4686L333.003 74.7725L334.168 75.0876L335.333 75.4139L336.481 75.7515L337.647 76.1004L338.795 76.4605L339.96 76.8319L341.109 77.2145L342.24 77.6084L343.388 78.0135L344.52 78.4355L345.651 78.8631L346.783 79.302L347.914 79.7522L349.029 80.2192L350.16 80.6918L351.258 81.1814L352.373 81.6822L353.47 82.1942L354.568 82.7175L355.666 83.252L356.763 83.7978L357.844 84.3492L358.925 84.9176L359.989 85.4971L361.053 86.0823L362.117 86.6844L363.169 87.2921L364.233 87.911L365.269 88.5412L366.316 89.1826L367.352 89.8354L368.388 90.4993L369.407 91.1745L370.425 91.8554L371.427 92.5531L372.429 93.2564L373.431 93.971L374.417 94.6969L375.402 95.434L376.387 96.1824L377.355 96.9364L378.306 97.7016L379.258 98.4781L380.209 99.2658L381.143 100.065L382.078 100.869L382.995 101.685L383.913 102.512L384.814 103.345L385.714 104.189L386.598 105.045L387.482 105.905L388.349 106.778L389.216 107.655L390.071 108.544L390.927 109.439L391.766 110.345L392.604 111.262L393.426 112.185L394.248 113.119L395.053 114.059L395.841 115.01L396.629 115.966L397.417 116.934L398.172 117.907L398.943 118.892L399.68 119.882L400.418 120.878L401.155 121.885L401.876 122.898L402.579 123.917L403.266 124.946L403.953 125.982L404.64 127.023L405.31 128.075L405.968 129.133L406.61 130.196L407.252 131.265L407.876 132.34L408.501 133.426L409.109 134.518L409.7 135.615L410.291 136.718L410.866 137.826L411.423 138.94L411.98 140.06L412.521 141.185L413.044 142.322L413.568 143.459L414.074 144.606L414.564 145.76L415.037 146.913L415.515 148.073L415.977 149.237L416.438 150.408L416.883 151.584L417.311 152.765L417.722 153.953L418.133 155.145L418.527 156.338L418.904 157.537L419.264 158.741L419.625 159.951L419.968 161.16L420.294 162.376L420.621 163.597L420.914 164.818L421.206 166.044L421.499 167.277L421.764 168.509L422.028 169.747L422.276 170.985L422.524 172.228L422.737 173.472L422.951 174.721L423.148 175.97L423.329 177.225L423.509 178.48L423.672 179.734L423.818 180.995L423.948 182.255L424.06 183.516L424.173 184.782L424.269 186.048L424.353 187.314L424.421 188.58L424.488 189.851L424.539 191.123L424.573 192.395L424.589 193.666L424.606 194.938V196.21L424.573 197.481L424.556 198.753L424.505 200.025L424.454 201.302L424.387 202.574L424.302 203.845L424.207 205.117L424.094 206.388L423.982 207.66L423.852 208.932L423.706 210.203L423.559 211.475L423.379 212.741L423.199 214.007L423.002 215.273L422.805 216.539L422.574 217.8L422.343 219.06L422.096 220.32L421.831 221.575L421.55 222.83L421.268 224.085L420.976 225.334L420.666 226.583L420.339 227.827L420.013 229.07L419.67 230.308L419.309 231.54L418.932 232.772L418.555 234.005L418.144 235.231L417.733 236.452L417.322 237.668L416.878 238.883L416.433 240.093L415.971 241.297L415.493 242.501L415.014 243.7L414.508 244.893L414.001 246.085L413.494 247.267L412.954 248.449L412.414 249.625L411.856 250.795L411.299 251.96L410.708 253.119L410.117 254.272L409.509 255.42L408.901 256.563L408.276 257.699L407.634 258.83L406.976 259.955L406.317 261.075L405.642 262.189L404.955 263.292L404.268 264.389L403.564 265.481L402.844 266.567L402.123 267.647L401.369 268.722L400.632 269.785L399.86 270.843L399.089 271.895L398.301 272.942L397.513 273.977L396.708 275.007L395.886 276.031L395.064 277.044L394.226 278.051L393.37 279.047L392.514 280.037L391.647 281.016L390.781 281.99L389.897 282.952L388.996 283.909L388.095 284.854L387.178 285.794L386.243 286.722L385.309 287.639L384.375 288.551L383.423 289.451L382.455 290.34L381.47 291.223L380.502 292.096L379.5 292.962L378.498 293.817L377.496 294.661L376.46 295.494L375.441 296.321L374.405 297.137L373.358 297.942L372.311 298.735L371.247 299.517L370.183 300.294L369.103 301.053L368.022 301.807L366.941 302.55L365.843 303.282L364.729 304.002L363.614 304.711L362.483 305.409L361.368 306.095L360.22 306.77L359.071 307.434L357.923 308.087L356.758 308.728L355.593 309.359L354.427 309.978L353.245 310.585L352.063 311.182L350.864 311.767L349.665 312.341L348.466 312.903L347.25 313.455L346.034 313.995L344.801 314.524L343.569 315.036L342.336 315.537L341.103 316.026L339.859 316.499L338.615 316.966L337.354 317.416L336.11 317.855L334.832 318.283L333.571 318.699L332.31 319.099L331.032 319.487L329.755 319.864L328.46 320.23L327.165 320.584L325.887 320.922L324.593 321.248L323.281 321.563L321.986 321.861L320.675 322.148L319.363 322.424L318.051 322.683L316.723 322.93L315.411 323.161L314.083 323.381L312.754 323.589L311.426 323.786L310.097 323.966L308.769 324.135L307.44 324.292L306.095 324.433L304.75 324.562L303.421 324.675L302.076 324.776L300.73 324.866L299.385 324.939L298.04 325.001L296.694 325.046L295.332 325.08L293.987 325.102H292.641H291.296L289.934 325.085L288.588 325.052L287.243 325.007L285.881 324.945L284.535 324.872L283.173 324.782L281.828 324.68L280.482 324.568L279.137 324.438L277.792 324.298L276.429 324.14L275.084 323.971L273.738 323.791L272.41 323.594L271.065 323.386L269.719 323.161L268.391 322.925L267.045 322.672L265.717 322.407L264.388 322.131L263.06 321.839L261.731 321.535L260.403 321.22L259.074 320.888L257.763 320.545L256.451 320.185L255.14 319.813L253.828 319.431L252.516 319.031L251.222 318.62L249.927 318.198L248.632 317.759L247.338 317.309L246.06 316.848L244.782 316.375L243.504 315.886L242.226 315.385L240.965 314.873L239.704 314.344L238.443 313.804L237.199 313.252L235.938 312.684L234.706 312.104L233.462 311.514L232.229 310.912L230.996 310.293L229.78 309.662L228.564 309.021L227.348 308.368L226.149 307.699L224.95 307.018L223.751 306.326L222.569 305.622L221.387 304.908L220.222 304.182L219.057 303.445L217.891 302.696L216.743 301.937L215.611 301.16L214.48 300.373L213.349 299.574L212.234 298.763L211.119 297.942L210.022 297.109L208.924 296.265L207.826 295.41L206.762 294.543L205.682 293.665L204.629 292.776L203.565 291.876L202.529 290.965L201.477 290.042L200.458 289.113L199.439 288.174L198.42 287.223L197.418 286.261L196.433 285.287L195.448 284.303L194.48 283.307L193.511 282.305L192.56 281.292L191.609 280.268L190.674 279.233L189.757 278.192L188.856 277.14L187.938 276.076L187.055 275.007L186.171 273.927L185.304 272.835L184.448 271.738L183.593 270.629L182.754 269.515L181.915 268.39L181.11 267.253L180.288 266.111L179.5 264.958L178.712 263.799L177.941 262.634L177.187 261.458L176.432 260.276L175.695 259.083L174.974 257.885L174.254 256.681L173.567 255.465L172.863 254.244L172.194 253.018L171.535 251.78L170.876 250.536L170.235 249.287L169.593 248.032L168.985 246.766L168.377 245.495L167.786 244.217L167.195 242.934L166.638 241.646L166.08 240.352L165.54 239.052L165.016 237.741L164.493 236.43L164.003 235.113L163.513 233.791L163.035 232.463L162.573 231.129L162.112 229.79L161.684 228.445L161.256 227.095L160.845 225.745L160.451 224.389L160.057 223.027L159.697 221.66L159.336 220.287L158.993 218.914L158.667 217.535L158.357 216.151L158.047 214.767L157.766 213.377L157.484 211.987L157.22 210.592L156.972 209.191L156.741 207.79L156.528 206.383L156.314 204.976L156.133 203.564L155.953 202.152L155.79 200.739L155.644 199.321L155.514 197.903L155.402 196.485L155.289 195.062L155.205 193.638L155.12 192.215L155.053 190.791L155.002 189.367L154.968 187.944L154.951 186.515V183.656L154.985 182.227L155.019 180.798L155.07 179.369L155.137 177.939L155.222 176.51L155.317 175.081L155.413 173.652L155.542 172.223L155.672 170.799L155.818 169.376L155.998 167.952L156.178 166.528L156.359 165.105L156.573 163.687L156.803 162.269L157.034 160.851L157.299 159.439L157.563 158.026L157.845 156.614L158.137 155.207L158.447 153.801L158.757 152.4L159.1 150.998L159.443 149.603L159.804 148.208L160.198 146.818L160.592 145.428L160.986 144.044L161.414 142.665L161.858 141.287L162.303 139.914L162.765 138.546L163.238 137.185L163.727 135.823L164.234 134.467L164.74 133.117L165.281 131.772L165.821 130.433L166.379 129.099L166.953 127.765L167.544 126.438L168.135 125.115L168.76 123.804L169.385 122.493L170.026 121.193L170.685 119.899L171.344 118.611L172.03 117.328L172.717 116.051L173.421 114.779L174.124 113.513L174.862 112.258L175.599 111.009L176.354 109.765L177.125 108.528L177.913 107.301L178.701 106.08L179.506 104.864L180.328 103.66L181.166 102.462L182.005 101.269L182.872 100.087L183.739 98.9114L184.606 97.7466L185.49 96.5875L186.407 95.4396L187.308 94.303L188.242 93.172L189.177 92.0467L190.128 90.9326L191.096 89.8297L192.065 88.7325L193.05 87.6465L194.035 86.5718L195.054 85.5084L196.073 84.4505L197.091 83.4039L198.138 82.3686L199.191 81.3445L200.238 80.3261L201.319 79.3189L202.383 78.323L203.481 77.3383L204.578 76.3648L205.693 75.4027L206.807 74.4517L207.939 73.5121L209.087 72.5836L210.236 71.6665L211.384 70.7606L212.566 69.8659L213.748 68.9825L214.93 68.1103L216.129 67.2494L217.345 66.3998L218.561 65.5614L219.777 64.7343L221.01 63.9184L222.254 63.1138L223.498 62.326L224.759 61.5495L226.02 60.7843L227.281 60.0303L228.576 59.2876L229.853 58.5617L231.148 57.8471L232.46 57.1438L233.771 56.4573L235.083 55.7821L236.411 55.1181L237.74 54.4654L239.085 53.8296L240.431 53.205L241.776 52.5973L243.138 52.0009L244.517 51.4157L245.88 50.8474L247.259 50.2903L248.655 49.7502L250.034 49.2212L251.43 48.7036L252.843 48.2028L254.256 47.7133L255.669 47.2406L257.082 46.7792L258.506 46.3347L259.936 45.9014L261.36 45.4851L262.801 45.0799L264.242 44.6917L265.683 44.3147L267.124 43.9546L268.582 43.6113L270.023 43.2794L271.498 42.9643L272.956 42.6604L274.414 42.3735L275.889 42.1034L277.364 41.8445L278.839 41.6026L280.313 41.3719L281.805 41.1581L283.28 40.9611L284.772 40.7754L286.263 40.6066L287.755 40.4547L289.247 40.3141L290.739 40.1903L292.23 40.0777L293.739 39.9821L295.231 39.9033L296.739 39.8358L298.231 39.7851L299.74 39.7514L301.248 39.7345H302.74L304.249 39.7401L305.757 39.7683L307.266 39.8076L308.775 39.8639L310.283 39.9371L311.775 40.0215L313.284 40.1227L314.792 40.2409L316.284 40.3703L317.793 40.5166L319.301 40.6798L320.793 40.8542L322.302 41.0455L323.793 41.2537L325.285 41.4732L326.777 41.7095L328.268 41.9627L329.76 42.2272L331.252 42.5085L332.727 42.8067L334.218 43.1162L335.693 43.4425L337.168 43.7858L338.643 44.1403L340.118 44.5116L341.576 44.8999L343.034 45.2994L344.509 45.7158L345.95 46.149L347.408 46.5935L348.849 47.0549L350.29 47.5276L351.731 48.0171L353.172 48.5235L354.602 49.0412L356.026 49.5757L357.456 50.1215L358.869 50.6842L360.282 51.2581L361.695 51.849L363.091 52.451L364.487 53.07L365.883 53.7058L367.262 54.3529L368.641 55.0168L370.02 55.692L371.382 56.3785L372.745 57.0819L374.09 57.7965L375.435 58.5279L376.781 59.2707L378.109 60.0303L379.421 60.8012L380.749 61.5889L382.044 62.3879L383.356 63.1982L384.65 64.0253L385.928 64.8637L387.206 65.7133L388.467 66.5799L389.728 67.4577L390.972 68.3467L392.216 69.247L393.449 70.1641L394.682 71.0925L395.898 72.0322L397.113 72.9831L398.312 73.9509L399.511 74.93L400.694 75.9203L401.859 76.9219L403.024 77.9347L404.172 78.9588L405.304 79.9941L406.435 81.0407L407.567 82.1042L408.665 83.1789L409.762 84.2648L410.86 85.3621L411.941 86.4705L413.005 87.5903L414.057 88.7156L415.104 89.8522L416.14 91.0057L417.159 92.1648L418.178 93.3352L419.18 94.5168L420.165 95.7097L421.15 96.9138L422.118 98.1292L423.07 99.3502L424.004 100.583L424.939 101.826L425.856 103.075L426.757 104.336L427.657 105.607L428.524 106.89L429.391 108.179L430.247 109.478L431.102 110.784L431.924 112.101L432.746 113.428L433.551 114.762L434.339 116.107L435.127 117.457L435.882 118.819L436.636 120.186L437.373 121.559L438.094 122.943L438.798 124.333L439.501 125.729L440.188 127.135L440.847 128.548L441.505 129.966L442.147 131.389L442.772 132.824L443.397 134.264L443.988 135.711L444.579 137.162L445.153 138.62L445.693 140.083L446.234 141.551L446.757 143.025L447.281 144.505L447.771 145.996L448.249 147.487L448.727 148.984L449.172 150.486L449.617 151.994L450.045 153.508L450.456 155.027L450.85 156.546L451.227 158.071L451.587 159.602L451.93 161.138L452.257 162.68L452.567 164.221L452.876 165.769L453.158 167.316L453.422 168.869L453.687 170.422L453.934 171.981L454.148 173.539L454.362 175.104L454.559 176.673L454.723 178.243L454.886 179.813L455.032 181.383L455.162 182.959L455.274 184.534L455.37 186.115L455.454 187.696L455.522 189.277L455.573 190.859L455.606 192.44L455.623 194.021L455.64 195.602L455.623 197.183L455.589 198.77L455.556 200.357L455.488 201.943L455.404 203.524L455.319 205.111L455.207 206.692L455.094 208.273L454.948 209.855L454.801 211.436L454.621 213.017L454.441 214.598L454.227 216.179L454.013 217.755L453.782 219.33L453.535 220.9L453.253 222.47L452.972 224.04L452.679 225.604L452.37 227.168L452.043 228.727L451.7 230.285L451.339 231.838L450.962 233.391L450.568 234.939L450.157 236.481L449.746 238.022L449.302 239.558L448.84 241.089L448.378 242.619L447.889 244.144L447.399 245.663L446.875 247.177L446.352 248.691L445.795 250.193L445.237 251.695L444.663 253.192L444.072 254.683L443.464 256.169L442.839 257.648L442.198 259.123L441.556 260.586L440.88 262.049L440.21 263.5L439.507 264.946L438.803 266.387L438.083 267.822L437.345 269.251L436.591 270.669L435.82 272.081L435.032 273.488L434.244 274.889L433.422 276.279L432.6 277.663L431.761 279.036L430.905 280.403L430.039 281.759L429.155 283.11L428.271 284.454L427.353 285.788L426.436 287.11L425.501 288.427L424.55 289.732L423.582 291.027L422.614 292.315L421.629 293.592L420.627 294.864L419.608 296.124L418.572 297.374L417.536 298.611L416.489 299.844L415.425 301.065L414.344 302.274L413.247 303.473L412.149 304.66L411.034 305.836L409.92 307.001L408.771 308.154L407.623 309.297L406.458 310.428L405.293 311.547L404.094 312.656L402.895 313.753L401.696 314.839L400.463 315.914L399.23 316.977L397.997 318.029L396.736 319.07L395.475 320.094L394.214 321.107L392.92 322.109L391.642 323.099L390.33 324.078L389.019 325.04L387.69 325.991L386.362 326.931L385.016 327.854L383.654 328.765L382.292 329.66L380.929 330.543L379.533 331.416L378.154 332.271L376.741 333.115L375.328 333.942L373.916 334.758L372.491 335.557L371.062 336.345L369.62 337.116L368.162 337.875L366.705 338.618L365.247 339.349L363.772 340.064L362.297 340.767L360.805 341.454L359.313 342.123L357.805 342.782L356.296 343.423L354.788 344.048L353.262 344.661L351.737 345.257L350.194 345.837L348.652 346.405L347.092 346.957L345.55 347.491L343.991 348.015L342.415 348.521L340.838 349.011L339.262 349.483L337.686 349.939L336.093 350.383L334.5 350.811L332.907 351.222L331.297 351.616L329.687 351.993L328.077 352.358L326.467 352.707L324.846 353.039L323.225 353.354L321.603 353.653L319.982 353.934L318.361 354.198L316.723 354.452L315.085 354.682L313.447 354.902L311.809 355.104L310.171 355.29L308.516 355.459L306.878 355.611L305.223 355.746L303.568 355.864L301.929 355.965L300.274 356.05L298.62 356.117L296.965 356.168L295.293 356.202L293.638 356.218H291.983L290.328 356.207L288.656 356.173L287.001 356.128L285.346 356.067L283.691 355.982L282.019 355.886L280.364 355.774L278.709 355.644L277.054 355.498L275.399 355.335L273.744 355.155L272.089 354.958L270.434 354.744L268.779 354.514L267.141 354.266L265.486 354.001L263.848 353.72L262.21 353.422L260.572 353.107L258.934 352.775L257.313 352.432L255.674 352.072L254.053 351.689L252.432 351.295L250.811 350.884L249.19 350.457L247.58 350.012L245.97 349.551L244.36 349.072L242.75 348.577L241.157 348.065L239.564 347.536L237.971 346.996L236.394 346.439L234.801 345.865L233.242 345.274L231.666 344.667L230.107 344.048L228.547 343.412L227.005 342.759L225.463 342.09L223.92 341.409L222.395 340.711L220.869 339.996L219.361 339.265L217.852 338.517L216.343 337.757L214.852 336.98L213.36 336.187L211.885 335.377L210.41 334.555L208.952 333.717L207.494 332.867L206.053 332.001L204.612 331.123L203.188 330.228L201.758 329.317L200.345 328.388L198.932 327.449L197.536 326.498L196.157 325.53L194.778 324.545L193.399 323.549L192.036 322.542L190.691 321.518L189.363 320.483L188.034 319.431L186.706 318.367L185.411 317.292L184.099 316.201L182.821 315.098L181.544 313.978L180.283 312.847L179.039 311.705L177.795 310.546L176.562 309.375L175.329 308.194L174.13 307.001L172.931 305.797L171.732 304.576L170.567 303.344L169.401 302.1L168.253 300.845L167.105 299.579L165.99 298.302L164.876 297.008L163.778 295.708L162.697 294.397L161.616 293.075L160.569 291.741L159.517 290.396L158.481 289.04L157.445 287.673L156.443 286.294L155.441 284.905L154.473 283.504L153.505 282.091L152.553 280.673L151.602 279.244L150.684 277.804L149.767 276.352L148.883 274.895L147.999 273.426L147.132 271.946L146.277 270.461L145.438 268.964L144.616 267.462L143.794 265.948L143.006 264.429L142.235 262.898L141.464 261.362L140.709 259.815L139.989 258.262L139.268 256.703L138.565 255.133L137.878 253.558L137.208 251.977L136.55 250.384L135.908 248.786L135.283 247.183L134.675 245.573L134.084 243.959L133.51 242.338L132.952 240.706L132.412 239.069L131.872 237.426L131.365 235.777L130.875 234.123L130.397 232.463L129.935 230.797L129.491 229.132L129.046 227.461L128.635 225.784L128.241 224.102L127.864 222.414L127.503 220.72L127.16 219.026L126.834 217.327L126.524 215.622L126.231 213.917L125.95 212.207L125.685 210.496L125.437 208.78L125.207 207.064L125.01 205.342L124.813 203.62L124.633 201.893L124.486 200.165L124.34 198.438L124.227 196.705L124.115 194.972L124.03 193.239L123.946 191.5L123.895 189.761L123.861 188.023L123.844 186.284V184.545L123.861 182.807L123.895 181.068L123.946 179.329L124.013 177.591L124.098 175.852L124.193 174.113L124.323 172.375L124.452 170.636L124.599 168.897L124.779 167.159L124.976 165.426L125.173 163.692L125.404 161.959L125.651 160.232L125.899 158.505L126.181 156.777L126.473 155.055L126.783 153.334L127.109 151.617L127.453 149.901L127.813 148.191L128.207 146.48L128.601 144.775L129.012 143.076L129.44 141.377L129.901 139.683L130.363 137.995L130.853 136.307L131.343 134.625L131.866 132.948L132.39 131.277L132.947 129.611L133.504 127.951L134.095 126.297L134.703 124.648L135.311 123L135.953 121.362L136.611 119.73L137.27 118.104L137.957 116.484L138.66 114.869L139.364 113.26L140.102 111.656L140.839 110.064L141.61 108.477L142.398 106.896L143.186 105.326L144.008 103.762L144.83 102.203L145.686 100.656L146.541 99.1139L147.425 97.5834L148.309 96.0586L149.21 94.5393L150.127 93.0314L151.078 91.5346L152.03 90.0435L152.998 88.5637L153.983 87.0951L154.968 85.6321L155.987 84.1804L157.023 82.74L158.059 81.3052L159.123 79.8816L160.186 78.4693L161.267 77.0682L162.365 75.6784L163.48 74.2998L164.611 72.9325L165.742 71.5764L166.908 70.2317L168.073 68.8981L169.255 67.5758L170.454 66.2648L171.67 64.965L172.886 63.6765L174.13 62.3992L175.374 61.1331L176.635 59.8784L177.896 58.6405L179.191 57.4138L180.485 56.1985L181.797 54.9943L183.125 53.8071L184.471 52.6311L185.816 51.4663L187.178 50.3185L188.541 49.1819L189.937 48.0565L191.333 46.948L192.746 45.8508L194.159 44.7705L195.6 43.7014L197.03 42.6492L198.487 41.6082L199.945 40.5841L201.42 39.5713L202.895 38.5754L204.387 37.5963L205.896 36.6285L207.404 35.6776L208.93 34.7379L210.472 33.8151L212.014 32.9092L213.574 32.0202L215.133 31.1424L216.709 30.2815L218.285 29.4375L219.878 28.6103L221.471 27.7945L223.081 26.9955L224.703 26.2133L226.313 25.4481L227.951 24.6997L229.589 23.9683L231.227 23.248L232.882 22.5447L234.537 21.8582L236.209 21.1886L237.881 20.5359L239.569 19.9001L241.258 19.2811L242.947 18.6791L244.652 18.0939L246.358 17.5256L248.064 16.9742L249.786 16.4396L251.526 15.922L253.248 15.4212L254.988 14.9373L256.727 14.4702L258.483 14.0201L260.24 13.5868L261.996 13.1761L263.752 12.7822L265.526 12.4052L267.299 12.0451L269.072 11.7019L270.845 11.3755L272.635 11.066L274.408 10.7791L276.198 10.509L278.005 10.2558L279.796 10.0195L281.602 9.80001L283.393 9.59745L285.2 9.41739L287.006 9.25421L288.808 9.10792L290.615 8.97851L292.433 8.86597L294.24 8.77594L296.058 8.70279L297.86 8.64652L299.678 8.60714L301.496 8.59026H303.303L305.121 8.60714L306.939 8.6409L308.758 8.69154L310.559 8.76469L312.377 8.85472L314.195 8.96163L316.002 9.08542L317.821 9.23171L319.639 9.39488L321.446 9.57494L323.247 9.77188L325.065 9.99133L326.867 10.2277L328.674 10.4809L330.481 10.7509L332.282 11.0435L334.072 11.353L335.873 11.6794L337.664 12.0226L339.454 12.3827L341.244 12.7653L343.034 13.1648L344.807 13.5812L346.58 14.0145L348.353 14.4646L350.127 14.9373L351.9 15.4268L353.656 15.9332L355.412 16.4565L357.169 16.9967L358.908 17.5537L360.648 18.1277L362.387 18.7185L364.11 19.3318L365.832 19.962L367.555 20.6091L369.26 21.273L370.966 21.9539L372.655 22.6516L374.343 23.3662L376.032 24.0977L377.704 24.846L379.376 25.6113L381.048 26.3934L382.686 27.1924L384.341 28.0083L385.979 28.841L387.6 29.6907L389.221 30.5572L390.843 31.4406L392.452 32.3409L394.046 33.2581L395.639 34.1921L397.232 35.1374L398.791 36.0996L400.367 37.0787L401.909 38.0746L403.452 39.0874L404.994 40.1171L406.52 41.1581L408.028 42.2159L409.537 43.2906L411.029 44.3822L412.504 45.4851L413.978 46.6048L415.436 47.7414L416.878 48.8893L418.319 50.054L419.748 51.23L421.161 52.4229L422.574 53.6326L423.97 54.8537L425.349 56.0915L426.712 57.3407L428.074 58.6067L429.419 59.884L430.748 61.1782L432.059 62.4836L433.371 63.8002L434.666 65.1338L435.944 66.4786L437.205 67.8346L438.449 69.2076L439.693 70.5918L440.925 71.9872L442.141 73.3995L443.34 74.8231L444.522 76.2579L445.688 77.704L446.853 79.1614L447.984 80.6299L449.116 82.1098L450.23 83.6009L451.328 85.1089L452.409 86.6281L453.473 88.1586L454.52 89.7003L455.567 91.2477L456.586 92.8063L457.605 94.3762L458.59 95.9573L459.575 97.5497L460.526 99.1533L461.478 100.763L462.395 102.383L463.313 104.015L464.213 105.652L465.08 107.301L465.947 108.961L466.803 110.632L467.642 112.309L468.447 113.997L469.251 115.69L470.04 117.395L470.794 119.106L471.548 120.828L472.269 122.555L472.989 124.288L473.676 126.032L474.363 127.782L475.021 129.538L475.663 131.299L476.305 133.072L476.913 134.85L477.504 136.633L478.078 138.423L478.635 140.218L479.159 142.018L479.682 143.824L480.189 145.636L480.668 147.454L481.146 149.277L481.591 151.105L482.018 152.94L482.429 154.78L482.823 156.62L483.201 158.465L483.561 160.316L483.904 162.173L484.214 164.03L484.507 165.893L484.799 167.761L485.064 169.629L485.312 171.502L485.525 173.376L485.739 175.256L485.936 177.135L486.1 179.014L486.246 180.899L486.375 182.784L486.488 184.675L486.584 186.565L486.668 188.456L486.719 190.352L486.77 192.248L486.786 194.145V196.041L486.77 197.937L486.719 199.833L486.668 201.73L486.584 203.626L486.499 205.522L486.387 207.418L486.257 209.314L486.094 211.211L485.931 213.101L485.751 214.992L485.537 216.882L485.306 218.767L485.058 220.652L484.794 222.537L484.512 224.417L484.203 226.296L483.893 228.17L483.55 230.043L483.189 231.912L482.812 233.78L482.418 235.642L481.99 237.499L481.563 239.356L481.101 241.207L480.639 243.053L480.15 244.898L479.643 246.738L479.119 248.572L478.562 250.401L478.005 252.224L477.414 254.042L476.823 255.859L476.198 257.665L475.556 259.466L474.898 261.261L474.228 263.05L473.541 264.834L472.837 266.612L472.1 268.384L471.362 270.146L470.608 271.901L469.82 273.651L469.015 275.395L468.21 277.128L467.371 278.856L466.516 280.572L465.649 282.283L464.765 283.982L463.864 285.675L462.947 287.364L462.012 289.04L461.061 290.706L460.076 292.366L459.091 294.014L458.089 295.652L457.07 297.284L456.017 298.904L454.97 300.513L453.906 302.111L452.826 303.698L451.728 305.279L450.596 306.849L449.465 308.402L448.317 309.949L447.151 311.486L445.969 313.01L444.77 314.518L443.554 316.021L442.321 317.512L441.089 318.986L439.828 320.449L438.55 321.901L437.272 323.341L435.96 324.765L434.649 326.177L433.32 327.578L431.975 328.968L430.613 330.341L429.234 331.703L427.854 333.047L426.442 334.381L425.029 335.703L423.599 337.009L422.158 338.303L420.717 339.58L419.242 340.846L417.767 342.095L416.275 343.327L414.767 344.549L413.241 345.753L411.716 346.945L410.173 348.121L408.614 349.281L407.055 350.428L405.462 351.554L403.868 352.668L402.275 353.765L400.654 354.846L399.033 355.915L397.412 356.961L395.757 357.996L394.102 359.015L392.43 360.017L390.758 361.001L389.069 361.969L387.381 362.92L385.675 363.854L383.952 364.771L382.23 365.671L380.49 366.555L378.734 367.421L376.978 368.271L375.222 369.104L373.448 369.92L371.658 370.719L369.868 371.495L368.067 372.255L366.26 372.998L364.459 373.723L362.64 374.432L360.805 375.119L358.97 375.788L357.135 376.441L355.283 377.077L353.431 377.696L351.579 378.292L349.71 378.872L347.824 379.435L345.955 379.975L344.07 380.498L342.167 380.999L340.281 381.483L338.378 381.95L336.459 382.4L334.556 382.827L332.637 383.238L330.7 383.626L328.781 383.998L326.844 384.347L324.908 384.679L322.971 384.994L321.035 385.286L319.082 385.562L317.128 385.815L315.175 386.052L313.222 386.265L311.268 386.462L309.315 386.637L307.345 386.794L305.375 386.935L303.404 387.053L301.451 387.149L299.481 387.228L297.511 387.284L295.523 387.323L293.553 387.34H291.583L289.613 387.323L287.643 387.284L285.655 387.228L283.685 387.149L281.715 387.053L279.745 386.935L277.775 386.8L275.804 386.642L273.834 386.462L271.864 386.265L269.894 386.046L267.924 385.81L265.97 385.551L264 385.275L262.047 384.977L260.093 384.662L258.14 384.33L256.187 383.975L254.25 383.604L252.297 383.21L250.36 382.799L248.424 382.366L246.488 381.916L244.568 381.443L242.648 380.954L240.729 380.442L238.809 379.913L236.907 379.361L235.004 378.793L233.101 378.208L231.216 377.6L229.33 376.976L227.444 376.329L225.575 375.665L223.706 374.984L221.854 374.28L220.002 373.56L218.15 372.823L216.315 372.063L214.48 371.287L212.662 370.494L210.844 369.678L209.025 368.845L207.218 367.995L205.428 367.129L203.638 366.24L201.865 365.334L200.092 364.411L198.319 363.471L196.579 362.515L194.823 361.536L193.1 360.54L191.378 359.527L189.655 358.497L187.95 357.451L186.261 356.387L184.572 355.307L182.9 354.21L181.245 353.096L179.59 351.965L177.952 350.817L176.331 349.652L174.721 348.47L173.111 347.272L171.501 346.056L169.925 344.824L168.349 343.581L166.79 342.315L165.247 341.037L163.705 339.743L162.196 338.432L160.687 337.104L159.179 335.765L157.704 334.409L156.246 333.036L154.788 331.652L153.347 330.251L151.923 328.839L150.51 327.409L149.097 325.963L147.718 324.506L146.339 323.032L144.976 321.546L143.631 320.044L142.303 318.53L140.991 317L139.696 315.458L138.418 313.905L137.157 312.335L135.897 310.754L134.664 309.162L133.431 307.552L132.232 305.932L131.05 304.3L129.868 302.657L128.702 301.003L127.571 299.337L126.439 297.655L125.342 295.967L124.244 294.262L123.18 292.551L122.116 290.824L121.081 289.085L120.062 287.341L119.043 285.585L118.058 283.819L117.089 282.041L116.138 280.251L115.204 278.451L114.286 276.644L113.385 274.827L112.502 272.998L111.635 271.164L110.796 269.318L109.957 267.467L109.152 265.605L108.364 263.737L107.593 261.857L106.839 259.972L106.101 258.076L105.398 256.174L104.694 254.261L104.024 252.342L103.365 250.418L102.724 248.488L102.099 246.547L101.491 244.6L100.917 242.647L100.343 240.689L99.8022 238.726L99.2786 236.756L98.7889 234.781L98.2992 232.801L97.8376 230.814L97.3929 228.822L96.965 226.825L96.5541 224.827L96.177 222.824L95.7998 220.816L95.4564 218.801L95.1299 216.787L94.8372 214.767L94.5445 212.741L94.2799 210.715L94.0322 208.684L93.8183 206.653L93.6044 204.616L93.4243 202.579L93.261 200.542L93.1147 198.5L93.0021 196.457L92.9064 194.409L92.822 192.361L92.7544 190.313L92.7206 188.265L92.6869 186.217V184.168L92.7206 182.12L92.7544 180.066L92.822 178.018L92.9064 175.97L93.0021 173.922L93.1316 171.874L93.261 169.826L93.4243 167.778L93.6213 165.729L93.8183 163.681L94.0491 161.639L94.2968 159.596L94.5614 157.559L94.8541 155.522L95.1637 153.486L95.4902 151.454L95.8336 149.423L96.1938 147.397L96.5879 145.372L96.9988 143.352L97.4266 141.337L97.8882 139.323L98.3498 137.314L98.8396 135.311L99.3462 133.313L99.8866 131.322L100.427 129.335L101.001 127.349L101.592 125.368L102.2 123.399L102.842 121.43L103.484 119.466L104.154 117.513L104.84 115.567L105.561 113.625L106.281 111.69L107.036 109.76L107.79 107.835L108.578 105.922L109.4 104.015L110.222 102.113L111.061 100.222L111.927 98.343L112.811 96.4693L113.712 94.6012L114.629 92.7444L115.564 90.8932L116.532 89.0532L117.5 87.2245L118.502 85.4014L119.521 83.5896L120.557 81.7891L121.61 79.9997L122.674 78.2161L123.754 76.4436L124.852 74.6824L125.984 72.9325L127.115 71.1938L128.28 69.4664L129.445 67.7502L130.644 66.0453L131.86 64.3517L133.076 62.6693L134.32 60.9981L135.581 59.3382L136.859 57.6952L138.154 56.0634L139.465 54.4429L140.794 52.8336L142.122 51.2413L143.485 49.6601L144.864 48.0903L146.26 46.5373L147.673 44.9955L149.103 43.4707L150.527 41.9571L151.985 40.4603L153.443 38.9749L154.934 37.5063L156.426 36.049L157.952 34.6085L159.477 33.1849L161.02 31.7726L162.579 30.3772L164.155 28.9986L165.731 27.6313L167.341 26.2809L168.951 24.9473L170.589 23.6306L172.227 22.3309L173.865 21.048L175.537 19.7763L177.226 18.5215L178.915 17.2836L180.62 16.0626L182.343 14.8585L184.066 13.6712L185.805 12.5009L187.561 11.3474L189.334 10.2164L191.108 9.1023L192.915 8.00507L194.705 6.92473L196.523 5.86126L198.341 4.81468L200.176 3.78498L202.011 2.77779L203.863 1.78748L205.732 0.814041L207.618 -0.136878L209.487 -1.07093L211.39 -1.98809L213.292 -2.88275L215.212 -3.76053L217.131 -4.62142L219.068 -5.45982L221.004 -6.28133L222.958 -7.08596L224.911 -7.86808L226.881 -8.63332L228.868 -9.37606L230.838 -10.1019L232.842 -10.8053L234.83 -11.4917L236.845 -12.1557L238.843 -12.8028L240.858 -13.4273L242.891 -14.0294L244.906 -14.6146L246.955 -15.1773L248.987 -15.7231L251.036 -16.2464L253.085 -16.7471L255.151 -17.231L257.217 -17.6924L259.283 -18.1313L261.349 -18.5533L263.431 -18.9528L265.514 -19.3298L267.614 -19.69L269.697 -20.0276L271.796 -20.3427L273.896 -20.6409L275.996 -20.9166L278.095 -21.1698L280.212 -21.4005L282.329 -21.6143L284.445 -21.8056L286.562 -21.9744L288.678 -22.1207L290.795 -22.2501L292.912 -22.357L295.045 -22.4414L297.162 -22.5033L299.295 -22.5427L301.412 -22.5652H303.545L305.679 -22.5427L307.812 -22.4977L309.929 -22.4358L312.062 -22.3514L314.195 -22.2445L316.312 -22.1151L318.446 -21.9632L320.562 -21.7944L322.696 -21.6031L324.812 -21.3892L326.929 -21.1529L329.045 -20.8941L331.162 -20.6184L333.278 -20.3202L335.395 -19.9994L337.495 -19.6562L339.594 -19.2961L341.711 -18.9135L343.794 -18.5083L345.893 -18.0807L347.993 -17.6362L350.076 -17.1692L352.159 -16.6796L354.225 -16.1676L356.307 -15.6387L358.373 -15.0872L360.422 -14.5133L362.488 -13.9225L364.537 -13.3092L366.586 -12.6734L368.618 -12.0206L370.651 -11.3454L372.683 -10.6477L374.698 -9.93311L376.713 -9.196L378.712 -8.43638L380.71 -7.65989L382.697 -6.86089L384.684 -6.045L386.671 -5.20661L388.641 -4.35134L390.595 -3.47356L392.548 -2.57891L394.501 -1.66174L396.438 -0.727692L398.357 0.228859L400.277 1.20229L402.18 2.19823L404.082 3.21106L405.968 4.24638L407.854 5.29859L409.706 6.36768L411.575 7.45928L413.41 8.56775L415.245 9.6931L417.063 10.841L418.882 12.0057L420.683 13.1873L422.473 14.3915L424.263 15.6125L426.019 16.8504L427.776 18.1051L429.532 19.3768L431.254 20.6653L432.977 21.9764L434.683 23.3043L436.371 24.6491L438.043 26.0108L439.715 27.3893L441.37 28.7848L443.008 30.1971L444.629 31.6263L446.239 33.0724L447.832 34.5353L449.425 36.0152L450.985 37.5063L452.544 39.0143L454.086 40.5391L455.612 42.0809L457.121 43.6395L458.612 45.2094L460.087 46.7961L461.545 48.3997L462.986 50.0146L464.416 51.6464L465.84 53.295L467.236 54.9549L468.615 56.6317L469.978 58.3198L471.323 60.0247L472.668 61.7408L473.98 63.4739L475.275 65.2182L476.553 66.9737L477.813 68.7462L479.058 70.5299L480.29 72.3248L481.506 74.131L482.688 75.9541L483.871 77.7884L485.019 79.634L486.167 81.4908L487.282 83.3589L488.379 85.2383L489.46 87.1289L490.524 89.0307L491.577 90.9438L492.596 92.8682L493.615 94.8038L494.6 96.7507L495.568 98.7088L496.519 100.678L497.454 102.653L498.354 104.639L499.238 106.637L500.105 108.64L500.961 110.654L501.799 112.68L502.604 114.711L503.409 116.748L504.181 118.796L504.918 120.856L505.655 122.921L506.359 124.991L507.046 127.068L507.716 129.155L508.357 131.248L508.982 133.347L509.59 135.452L510.181 137.567L510.739 139.689L511.279 141.816L511.803 143.948L512.292 146.086L512.782 148.23L513.227 150.38L513.671 152.535L514.082 154.69L514.476 156.85L514.854 159.017L515.197 161.183L515.523 163.361L515.833 165.538L516.114 167.721L516.379 169.904L516.627 172.093L516.841 174.282L517.038 176.477L517.218 178.671L517.364 180.865L517.494 183.066L517.606 185.266L517.691 187.471L517.758 189.677L517.809 191.883L517.826 194.088V196.294L517.809 198.5L517.758 200.705L517.691 202.911L517.606 205.117L517.494 207.323L517.364 209.528L517.201 211.734L517.038 213.94L516.824 216.14L516.61 218.34L516.362 220.54L516.098 222.734L515.805 224.929L515.512 227.123L515.169 229.312L514.825 231.495L514.448 233.678L514.054 235.856L513.626 238.033L513.182 240.205L512.72 242.372L512.242 244.532L511.735 246.693L511.211 248.848L510.654 250.998L510.08 253.141L509.489 255.28L508.881 257.412L508.239 259.539L507.581 261.66L506.911 263.776L506.207 265.886L505.487 267.991L504.749 270.084L503.978 272.171L503.207 274.253L502.402 276.329L501.563 278.394L500.724 280.454L499.857 282.502L498.974 284.544L498.056 286.576L497.138 288.601L496.187 290.616L495.219 292.625L494.217 294.622L493.215 296.608L492.179 298.583L491.132 300.553L490.068 302.511L488.971 304.458L487.873 306.393L486.741 308.318L485.593 310.231L484.428 312.133L483.229 314.023L482.03 315.903L480.797 317.771L479.553 319.627L478.292 321.473L477.014 323.307L475.719 325.125L474.408 326.931L473.062 328.726L471.717 330.51L470.338 332.276L468.942 334.032L467.529 335.771L466.105 337.498L464.664 339.209L463.206 340.908L461.731 342.596L460.239 344.267L458.731 345.921L457.205 347.564L455.646 349.191L454.086 350.8L452.51 352.392L450.917 353.973L449.296 355.538L447.675 357.085L446.037 358.615L444.382 360.129L442.71 361.631L441.021 363.117L439.315 364.58L437.593 366.032L435.87 367.466L434.114 368.879L432.358 370.28L430.568 371.658L428.778 373.02L426.971 374.365L425.152 375.693L423.317 377.004L421.482 378.298L419.613 379.57L417.744 380.824L415.859 382.062L413.973 383.278L412.053 384.476L410.134 385.652L408.197 386.811L406.244 387.953L404.291 389.073L402.32 390.176L400.333 391.262L398.346 392.325L396.348 393.372L394.333 394.396L392.3 395.398L390.268 396.382L388.236 397.345L386.17 398.29L384.104 399.213L382.038 400.119L379.956 401.002L377.856 401.863L375.756 402.701L373.64 403.523L371.523 404.322L369.39 405.098L367.256 405.852L365.123 406.589L362.955 407.304L360.805 407.996L358.638 408.666L356.454 409.313L354.27 409.943L352.091 410.551L349.896 411.136L347.7 411.698L345.505 412.239L343.293 412.756L341.08 413.251L338.851 413.724L336.622 414.174L334.393 414.602L332.164 415.007L329.918 415.39L327.689 415.75L325.426 416.093L323.18 416.408L320.917 416.701L318.671 416.971L316.408 417.224L314.145 417.449L311.865 417.652L309.602 417.832L307.322 417.989L305.042 418.124L302.779 418.237L300.5 418.327L298.22 418.394L295.94 418.439L293.66 418.462H291.363L289.084 418.439L286.804 418.394L284.524 418.327L282.244 418.237L279.964 418.124L277.685 417.989L275.405 417.826L273.125 417.64L270.845 417.432L268.565 417.202L266.285 416.948L264.023 416.673L261.743 416.374L259.48 416.054L257.217 415.71L254.954 415.345L252.708 414.956L250.445 414.546L248.199 414.112L245.953 413.657L243.724 413.178L241.478 412.678L239.248 412.154L237.019 411.608L234.807 411.04L232.578 410.449L230.366 409.836L228.17 409.2L225.975 408.542L223.779 407.861L221.595 407.158L219.411 406.437L217.233 405.689L215.065 404.924L212.898 404.136L210.748 403.326L208.598 402.493L206.464 401.638L204.331 400.76L202.214 399.86L200.097 398.943L197.998 398.003L195.898 397.041L193.815 396.056L191.749 395.054L189.683 394.03L187.634 392.984L185.585 391.915L183.553 390.829L181.538 389.72L179.523 388.595L177.524 387.447L175.52 386.277L173.55 385.089L171.58 383.88L169.61 382.653L167.673 381.404L165.737 380.132L163.817 378.844L161.915 377.533L160.012 376.205L158.126 374.86L156.257 373.493L154.405 372.108L152.57 370.707L150.752 369.284L148.934 367.843L147.132 366.386L145.342 364.906L143.569 363.409L141.813 361.896L140.073 360.365L138.351 358.818L136.628 357.254L134.94 355.673L133.251 354.075L131.596 352.454L129.941 350.822L128.32 349.174L126.693 347.508L125.1 345.82L123.507 344.121L121.947 342.405L120.388 340.672L118.863 338.922L117.337 337.161L115.845 335.382L114.371 333.588L112.896 331.776L111.455 329.953L110.025 328.113L108.612 326.256L107.233 324.388L105.854 322.503L104.491 320.607L103.163 318.693L101.851 316.769L100.556 314.833L99.2786 312.881L98.0177 310.917L96.7849 308.942L95.5521 306.95L94.3531 304.947L93.171 302.933L92.0057 300.907L90.8743 298.87L89.7597 296.822L88.662 294.757L87.5812 292.681L86.5173 290.593L85.4815 288.5L84.4626 286.396L83.4606 284.28L82.4924 282.153L81.5411 280.015L80.6066 277.866L79.6891 275.71L78.8053 273.544L77.9384 271.367L77.0827 269.183L76.2609 266.989L75.4559 264.789L74.6678 262.578L73.9135 260.361L73.1761 258.132L72.4724 255.899L71.7688 253.653L71.0989 251.403L70.4572 249.146L69.8324 246.884L69.2244 244.611L68.6502 242.338L68.076 240.054L67.5525 237.763L67.0459 235.468L66.5562 233.166L66.0777 230.859L65.633 228.547L65.222 226.234L64.8111 223.916L64.434 221.592L64.0906 219.263L63.7641 216.927L63.4545 214.592L63.173 212.252L62.9253 209.911L62.6777 207.564L62.4637 205.213L62.2836 202.861L62.1204 200.509L61.974 198.151L61.8614 195.793L61.7657 193.436L61.6982 191.078L61.6475 188.715L61.6306 186.352V183.988L61.6475 181.625L61.6982 179.262L61.7657 176.899L61.8614 174.535L61.974 172.172L62.1204 169.809L62.2836 167.451L62.4806 165.094L62.6945 162.736L62.9253 160.378L63.1899 158.026L63.4714 155.674L63.781 153.328L64.1075 150.982L64.4677 148.641L64.8449 146.3L65.2389 143.965L65.6668 141.63L66.1115 139.3L66.5899 136.977L67.0797 134.658L67.6032 132.34L68.1436 130.027L68.7009 127.72L69.292 125.419L69.8999 123.123L70.5416 120.833L71.2002 118.549L71.8701 116.27L72.5738 113.997L73.2943 111.735L74.0486 109.478L74.8198 107.228L75.6079 104.983L76.4298 102.749L77.2685 100.521L78.1354 98.3037L79.0192 96.0923L79.9199 93.8923L80.8374 91.6978L81.7888 89.5146L82.757 87.3371L83.759 85.1707L84.7779 83.0157L85.8136 80.8719L86.8775 78.7337L87.9415 76.6068L89.056 74.4911L90.1706 72.3867L91.319 70.2935L92.4842 68.2116L93.6663 66.141L94.8822 64.0816L96.115 62.0334L97.3591 59.9965L98.62 57.9709L99.9147 55.9565L101.226 53.959L102.555 51.9727L103.9 49.9977L105.279 48.0396L106.659 46.0928L108.071 44.1571L109.496 42.2384L110.954 40.3309L112.412 38.4403L113.903 36.561L115.412 34.6985L116.937 32.8529L118.48 31.0186L120.039 29.2012L121.615 27.4006L123.225 25.6169L124.835 23.8445L126.473 22.0889L128.128 20.3502L129.8 18.6284L131.472 16.9235L133.178 15.2355L134.9 13.5643L136.64 11.9101L138.413 10.2727L140.186 8.65215L141.976 7.04852L143.783 5.46177L145.601 3.89189L147.436 2.34453L149.288 0.814041L151.157 -0.699556L153.043 -2.19628L154.929 -3.6705L156.848 -5.12784L158.785 -6.56829L160.721 -7.98625L162.691 -9.38731L164.662 -10.7659L166.649 -12.1276L168.647 -13.4667L170.662 -14.789L172.695 -16.0888L174.727 -17.3717L176.776 -18.6321L178.859 -19.8756L180.924 -21.0966L183.024 -22.2952L185.124 -23.4768L187.24 -24.6359L189.374 -25.7725L191.524 -26.8866L193.675 -27.9838L195.842 -29.0585L198.009 -30.1108L200.204 -31.1405L202.4 -32.1476L204.595 -33.1323L206.807 -34.0945L209.037 -35.0398L211.266 -35.9626L213.512 -36.8629L215.775 -37.7407L218.038 -38.5959L220.317 -39.4287L222.597 -40.239L224.877 -41.0267L227.191 -41.7919L229.487 -42.5347L231.801 -43.2493L234.132 -43.9414L236.462 -44.611L238.792 -45.258L241.14 -45.8826L243.487 -46.4847L245.851 -47.0642L248.216 -47.6157L250.591 -48.1446L252.956 -48.651L255.331 -49.1349L257.723 -49.5963L260.099 -50.0296L262.491 -50.4403L264.901 -50.8286L267.293 -51.1943L269.702 -51.5319L272.112 -51.847L274.521 -52.1396L276.93 -52.4097L279.356 -52.6516L281.783 -52.8711L284.209 -53.068L286.635 -53.2368L289.061 -53.3831L291.487 -53.5069L293.93 -53.6026L296.357 -53.6757L298.8 -53.7264L301.226 -53.7489H303.669L306.095 -53.7264L308.538 -53.6757L310.981 -53.6026L313.407 -53.5069L315.85 -53.3831L318.294 -53.2368L320.72 -53.068L323.146 -52.8711L325.589 -52.6516L328.015 -52.4097L330.441 -52.1396L332.868 -51.847L335.294 -51.5319L337.703 -51.1887L340.129 -50.8229L342.538 -50.4347L344.948 -50.0183L347.357 -49.5794L349.749 -49.118L352.142 -48.6285L354.534 -48.1165L356.927 -47.5819L359.302 -47.0249L361.678 -46.4397L364.053 -45.832L366.434 -45.2018L368.799 -44.5491L371.146 -43.8682L373.493 -43.1649L375.841 -42.439L378.188 -41.6907L380.519 -40.9198L382.832 -40.1264L385.146 -39.3049L387.459 -38.4609L389.756 -37.5944L392.053 -36.7053L394.333 -35.7938L396.596 -34.8598L398.858 -33.9032L401.121 -32.9241L403.367 -31.9226L405.597 -30.8985L407.809 -29.8519L410.021 -28.7828L412.233 -27.6912L414.429 -26.5771L416.607 -25.4405L418.775 -24.2814L420.942 -23.0998L423.092 -21.8956L425.226 -20.669L427.359 -19.4199L429.476 -18.1538L431.575 -16.8653L433.658 -15.5543L435.741 -14.2207L437.79 -12.8703L439.839 -11.4974L441.888 -10.1019L443.903 -8.68396L445.902 -7.24914L447.9 -5.7918L449.887 -4.31758L451.857 -2.82086L453.811 -1.30725L455.747 0.228859L457.667 1.78185L459.569 3.35735L461.455 4.94973L463.324 6.56461L465.193 8.19638L467.028 9.85066L468.863 11.5218L470.664 13.2098L472.454 14.9148L474.245 16.6422L476.001 18.3865L477.74 20.1477L479.463 21.9257L481.168 23.7207L482.874 25.5325L484.529 27.3612L486.184 29.2068L487.822 31.0692L489.443 32.9486L491.036 34.8448L492.63 36.7579L494.189 38.6879L495.731 40.6348L497.257 42.5985L498.748 44.5791L500.24 46.571L501.698 48.5798L503.139 50.6054L504.569 52.6423L505.982 54.6961L507.361 56.7611L508.723 58.843L510.069 60.9362L511.397 63.0462L512.692 65.1675L513.97 67.3057L515.231 69.4552L516.463 71.6158L517.679 73.7878L518.878 75.9766L520.061 78.1767L521.209 80.388L522.34 82.6106L523.438 84.8444L524.536 87.0895L525.588 89.3458L526.635 91.6134L527.654 93.8923L528.656 96.1824L529.625 98.4837L530.576 100.796L531.493 103.115L532.394 105.444L533.278 107.785L534.134 110.137L534.972 112.494L535.794 114.863L536.582 117.238L537.337 119.618L538.074 122.009L538.794 124.406L539.481 126.809L540.151 129.223L540.793 131.642L541.418 134.067L542.009 136.504L542.583 138.946L543.123 141.394L543.647 143.847L544.153 146.306L544.632 148.77L545.077 151.235L545.505 153.711L545.899 156.186L546.276 158.668L546.619 161.155L546.946 163.647L547.255 166.14L547.537 168.638L547.784 171.137L548.015 173.641L548.212 176.145L548.392 178.648L548.539 181.158L548.668 183.673L548.764 186.188L548.831 188.704L548.882 191.219L548.916 193.734V196.249L548.882 198.77L548.831 201.291L548.764 203.811L548.668 206.332L548.539 208.847L548.392 211.363L548.212 213.878L548.015 216.393L547.784 218.902L547.537 221.412L547.255 223.922L546.962 226.425L546.636 228.929L546.276 231.428L545.899 233.926L545.505 236.419L545.077 238.911L544.615 241.398L544.137 243.88L543.647 246.356L543.106 248.826L542.566 251.29L541.992 253.755L541.384 256.214L540.759 258.667L540.1 261.109L539.431 263.551L538.744 265.982L538.023 268.407L537.269 270.826L536.498 273.24L535.693 275.643L534.871 278.04L534.032 280.431L533.165 282.811L532.282 285.186L531.364 287.549L530.413 289.907L529.461 292.253L528.459 294.588L527.457 296.912L526.422 299.23L525.358 301.537L524.277 303.833L523.179 306.118L522.048 308.396L520.899 310.658L519.734 312.915L518.535 315.16L517.319 317.394L516.075 319.611L514.814 321.816L513.536 324.011L512.225 326.194L510.896 328.36L509.551 330.515L508.172 332.659L506.776 334.786L505.363 336.902L503.922 339.006L502.464 341.094L500.989 343.17L499.48 345.229L497.972 347.272L496.429 349.303L494.853 351.318L493.277 353.315L491.667 355.301L490.046 357.271L488.408 359.223L486.753 361.159L485.064 363.077L483.358 364.979L481.636 366.864L479.896 368.732L478.14 370.584L476.367 372.418L474.56 374.235L472.742 376.036L470.923 377.814L469.071 379.575L467.202 381.32L465.317 383.047L463.414 384.757L461.494 386.445L459.541 388.117L457.588 389.765L455.618 391.397L453.63 393.012L451.615 394.604L449.6 396.174L447.568 397.727L445.519 399.258L443.436 400.771L441.353 402.262L439.254 403.731L437.137 405.183L435.02 406.612L432.87 408.019L430.703 409.403L428.536 410.77L426.34 412.115L424.145 413.437L421.933 414.737L419.703 416.014L417.474 417.269L415.211 418.501L412.948 419.711L410.669 420.898L408.389 422.063L406.075 423.205L403.761 424.325L401.431 425.422L399.101 426.497L396.753 427.549L394.389 428.579L392.013 429.58L389.638 430.559L387.262 431.516L384.853 432.45L382.444 433.362L380.034 434.245L377.608 435.106L375.165 435.944L372.722 436.755L370.262 437.542L367.802 438.308L365.342 439.045L362.865 439.759L360.372 440.451L357.878 441.115L355.384 441.757L352.874 442.37L350.346 442.961L347.835 443.529L345.308 444.069L342.764 444.581L340.236 445.071L337.692 445.532L335.13 445.971L332.586 446.382L330.025 446.77L327.469 447.13L324.908 447.468L322.335 447.777L319.763 448.064L317.19 448.323L314.618 448.56L312.045 448.768L309.456 448.953L306.866 449.111L304.294 449.24L301.704 449.347L299.115 449.426L296.525 449.477L293.936 449.505H291.347L288.757 449.482L286.151 449.432L283.561 449.353L280.972 449.252L278.383 449.122L275.793 448.97L273.204 448.79L270.614 448.582L268.042 448.351L265.452 448.093L262.88 447.806L260.29 447.496L257.718 447.158L255.145 446.798L252.573 446.41L250.017 445.994L247.445 445.555L244.883 445.088L242.322 444.598L239.778 444.081L237.233 443.54L234.689 442.972L232.144 442.381L229.617 441.762L227.089 441.115L224.562 440.446L222.051 439.748L219.541 439.028L217.047 438.279L214.553 437.509L212.076 436.715L209.599 435.894L207.123 435.05L204.663 434.177L202.22 433.283L199.777 432.366L197.334 431.42L194.907 430.453L192.498 429.457L190.089 428.438L187.696 427.397L185.304 426.334L182.94 425.242L180.564 424.128L178.217 422.991L175.869 421.827L173.522 420.639L171.208 419.43L168.895 418.197L166.598 416.943L164.318 415.665L162.038 414.366L159.776 413.043L157.53 411.698L155.3 410.326L153.088 408.93L150.876 407.518L148.68 406.077L146.513 404.614L144.346 403.135L142.179 401.632L140.045 400.107L137.929 398.56L135.829 396.99L133.729 395.398L131.663 393.788L129.597 392.157L127.565 390.502L125.533 388.831L123.518 387.138L121.531 385.421L119.544 383.688L117.59 381.933L115.637 380.155L113.718 378.36L111.815 376.548L109.929 374.714L108.06 372.862L106.208 370.989L104.373 369.098L102.555 367.191L100.765 365.266L98.9747 363.319L97.2184 361.356L95.4789 359.375L93.7564 357.378L92.0508 355.363L90.3789 353.332L88.7239 351.284L87.0858 349.213L85.4646 347.131L83.8716 345.027L82.2785 342.911L80.7192 340.779L79.1937 338.629L77.6682 336.463L76.1764 334.285L74.7185 332.091L73.2605 329.879L71.8307 327.651L70.4178 325.412L69.0386 323.155L67.6764 320.888L66.3479 318.603L65.0194 316.308L63.7247 313.995L62.4637 311.671L61.2197 309.336L59.9869 306.984L58.7879 304.621L57.6058 302.246L56.4574 299.861L55.3259 297.464L54.2282 295.055L53.1474 292.636L52.0835 290.205L51.0477 287.763L50.0289 285.31L49.0438 282.845L48.0924 280.369L47.158 277.882L46.2404 275.39L45.3566 272.886L44.4897 270.371L43.651 267.85L42.846 265.318L42.0579 262.78L41.2867 260.237L40.5662 257.682L39.8457 255.122L39.1589 252.551L38.5003 249.974L37.8754 247.391L37.2675 244.803L36.6764 242.203L36.1191 239.598L35.5956 236.987L35.089 234.37L34.6105 231.748L34.1489 229.121L33.7211 226.487L33.3271 223.854L32.9499 221.215L32.6065 218.57L32.28 215.92L31.9873 213.27L31.7227 210.614L31.4751 207.958L31.2611 205.297L31.081 202.635L30.9178 199.968L30.7883 197.301L30.6757 194.634L30.5913 191.961L30.5406 189.289L30.5068 186.616V183.943L30.5406 181.271L30.5913 178.598L30.6588 175.925L30.7714 173.252L30.9009 170.58L31.0641 167.907L31.2443 165.24L31.4582 162.573L31.689 159.906L31.9704 157.244L32.2519 154.583L32.5784 151.921L32.9218 149.265L33.2989 146.61L33.693 143.959L34.1208 141.315L34.5655 138.67L35.0552 136.031L35.545 133.398L36.0854 130.77L36.6427 128.142L37.2168 125.52L37.8417 122.91L38.4665 120.299L39.1364 117.694L39.8231 115.1L40.5268 112.511L41.2642 109.929L42.0354 107.352L42.8235 104.78L43.6454 102.22L44.501 99.6653L45.3679 97.122L46.2517 94.5844L47.1861 92.0579L48.1206 89.5371L49.0888 87.0276L50.0908 84.5293L51.1097 82.0366L52.1567 79.5552L53.2375 77.0851L54.3183 74.6262L55.4498 72.1785L56.5981 69.7421L57.7634 67.317L58.9624 64.9031L60.1783 62.5005L61.4223 60.1091L62.6833 57.7289L63.978 55.3601L65.2896 53.0024L66.635 50.6617L67.9972 48.3322L69.3764 46.014L70.7893 43.7126L72.2304 41.4225L73.6715 39.1493L75.1463 36.8873L76.6549 34.6423L78.1804 32.4084L79.7228 30.1915L81.299 27.9914L82.8921 25.8082L84.502 23.6363L86.1401 21.4812L87.7951 19.343L89.467 17.2217L91.1726 15.1173L92.8951 13.0298L94.6346 10.9591L96.4078 8.90536L98.181 6.86846L99.9879 4.84844L101.823 2.84531L103.658 0.859056L105.527 -1.10469L107.413 -3.05156L109.315 -4.98154L111.235 -6.88902L113.188 -8.77961L115.142 -10.6533L117.129 -12.5046L119.127 -14.3389L121.142 -16.1507L123.191 -17.9457L125.24 -19.7181L127.306 -21.468L129.406 -23.2011L131.506 -24.9116L133.639 -26.5996L135.79 -28.2708L137.957 -29.9194L140.124 -31.5456L142.319 -33.1492L144.532 -34.7303L146.761 -36.289L148.99 -37.8307L151.253 -39.3499L153.533 -40.8467L155.813 -42.3209L158.126 -43.7726L160.44 -45.1962L162.77 -46.5972L165.118 -47.9758L167.482 -49.3318L169.857 -50.6654L172.25 -51.9764L174.642 -53.265L177.052 -54.5254L179.495 -55.7632L181.921 -56.9786L184.381 -58.1659L186.841 -59.3306L189.318 -60.4729L191.811 -61.587L194.322 -62.6786L196.833 -63.742L199.36 -64.783L201.888 -65.8014L204.432 -66.7917L206.993 -67.7595L209.549 -68.6992L212.121 -69.6108L214.711 -70.4998L217.3 -71.3607L219.907 -72.1991L222.513 -73.0093L225.136 -73.7971L227.759 -74.5567L230.399 -75.2882L233.039 -75.9972L235.68 -76.678L238.337 -77.3307L241.01 -77.9553L243.684 -78.5573L246.358 -79.1313L249.032 -79.6771L251.723 -80.1947L254.43 -80.6899L257.121 -81.1569L259.829 -81.5958L262.553 -82.0066L265.261 -82.3892L267.985 -82.7493L270.71 -83.0813L273.435 -83.3851L276.159 -83.6608L278.9 -83.9084L281.642 -84.1279L284.383 -84.3248L287.125 -84.4936L289.866 -84.6343L292.608 -84.7468L295.36 -84.8312L298.102 -84.8875L300.86 -84.9156H303.601L306.354 -84.8931L309.112 -84.8425L311.854 -84.7637L314.606 -84.6568L317.348 -84.5217L320.1 -84.3586L322.842 -84.1672L325.595 -83.9478L328.336 -83.7002L331.077 -83.4301L333.819 -83.1319L336.543 -82.8056L339.285 -82.4511L342.009 -82.0685L344.751 -81.6577L347.475 -81.2188L350.183 -80.7518L352.907 -80.2623L355.615 -79.7446L358.323 -79.1988L361.013 -78.6249L363.704 -78.0228L366.395 -77.3926L369.086 -76.7399L371.76 -76.059L374.433 -75.3501L377.09 -74.613L379.747 -73.8534L382.387 -73.0656L385.028 -72.2497L387.668 -71.4057L390.291 -70.5392L392.897 -69.6445L395.503 -68.7217L398.11 -67.7764L400.699 -66.803L403.272 -65.8014L405.844 -64.7774L408.4 -63.7251L410.961 -62.6504L413.489 -61.5476L416.033 -60.4166L418.544 -59.2631L421.054 -58.0815L423.548 -56.8774L426.042 -55.6451L428.502 -54.3903L430.962 -53.113L433.422 -51.8076L435.848 -50.4797L438.274 -49.1236L440.683 -47.7451L443.076 -46.344L445.451 -44.9148L447.816 -43.4631L450.18 -41.9889L452.51 -40.4922L454.841 -38.9729L457.154 -37.4256L459.451 -35.8557L461.731 -34.2633L463.994 -32.6484L466.24 -31.011L468.469 -29.3511L470.681 -27.6687L472.877 -25.9638L475.061 -24.2364L477.228 -22.4865L479.378 -20.714L481.495 -18.9191L483.612 -17.1073L485.711 -15.2729L487.794 -13.4161L489.843 -11.5367L491.875 -9.63489L493.907 -7.71615L495.906 -5.77492L497.893 -3.8168L499.846 -1.83617L501.799 0.166964L503.719 2.18698L505.622 4.2295L507.507 6.28891L509.376 8.36518L511.211 10.464L513.03 12.5796L514.837 14.7122L516.627 16.8672L518.383 19.0392L520.122 21.228L521.828 23.4337L523.534 25.6563L525.206 27.8957L526.844 30.1521L528.465 32.4253L530.075 34.7154L531.668 37.0224L533.227 39.3462L534.753 41.687L536.278 44.0446L537.77 46.4135L539.228 48.7992L540.669 51.2019L542.082 53.6158L543.478 56.0465L544.857 58.4886L546.203 60.9475L547.531 63.4176L548.826 65.9047L550.087 68.4029L551.348 70.9181L552.563 73.4445L553.763 75.9822L554.945 78.5312L556.093 81.0913L557.208 83.6628L558.305 86.2511L559.369 88.8507L560.422 91.4615L561.441 94.078L562.426 96.7057L563.394 99.3446L564.345 101.995L565.246 104.656L566.147 107.323L567.002 110.002L567.841 112.691L568.646 115.387L569.434 118.087L570.188 120.8L570.909 123.517L571.613 126.246L572.288 128.981L572.93 131.721L573.555 134.473L574.146 137.23L574.703 139.992L575.243 142.761L575.75 145.535L576.229 148.314L576.673 151.1L577.101 153.891L577.512 156.682L577.872 159.478L578.216 162.28L578.525 165.088L578.807 167.896L579.071 170.709L579.302 173.522L579.499 176.341L579.679 179.161L579.826 181.985L579.938 184.81L580.023 187.634L300.061 190.082L299.745 190.285Z" stroke="white" stroke-width="1.5"/>
</g>
</mask>
<g mask="url(#mask2_5419_24999)">
<rect x="1" width="1435" height="567" fill="#52B7FF" fill-opacity="0.1"/>
</g>
<defs>
<radialGradient id="paint0_radial_5419_24999" cx="0" cy="0" r="1" gradientUnits="userSpaceOnUse" gradientTransform="translate(1385.07 478) rotate(90) scale(350)">
<stop stop-color="#0047E0"/>
<stop offset="1" stop-color="#0047E0" stop-opacity="0"/>
</radialGradient>
<linearGradient id="paint1_linear_5419_24999" x1="-22.273" y1="-14.6638" x2="945.449" y2="1029.83" gradientUnits="userSpaceOnUse">
<stop stop-color="#0055FF" stop-opacity="0.9"/>
<stop offset="0.259813" stop-color="#011A4D" stop-opacity="0.8"/>
<stop offset="0.483187" stop-color="#021F59" stop-opacity="0.0959261"/>
<stop offset="0.682582" stop-color="#021F59" stop-opacity="0"/>
</linearGradient>
<clipPath id="clip0_5419_24999">
<rect width="550" height="535" fill="white" transform="translate(30 -85)"/>
</clipPath>
</defs>
</svg>
